# Blender 4.5.3 LTS
# www.blender.org
mtllib Hammer.mtl
o EVA_hammer
v -0.002315 0.026682 0.049325
v -0.005093 0.026547 0.049325
v -0.002315 0.026682 0.165695
v -0.005093 0.026547 0.165695
v -0.005093 0.026547 0.049325
v -0.004837 0.024053 0.049325
v -0.005093 0.026547 0.165695
v -0.004837 0.024053 0.165695
v -0.004837 0.024053 0.049325
v -0.007330 0.023691 0.049325
v -0.004837 0.024053 0.165695
v -0.007330 0.023691 0.165695
v -0.007835 0.026149 0.049325
v -0.007835 0.026149 0.165695
v -0.007330 0.023691 0.049325
v -0.007330 0.023691 0.165695
v -0.007835 0.026149 0.049325
v -0.010527 0.025495 0.049325
v -0.007835 0.026149 0.165695
v -0.010527 0.025495 0.165695
v -0.010527 0.025495 0.049325
v -0.009781 0.023095 0.049325
v -0.010527 0.025495 0.165695
v -0.009781 0.023094 0.165695
v -0.009781 0.023095 0.049325
v -0.012153 0.022271 0.049325
v -0.009781 0.023094 0.165695
v -0.012153 0.022271 0.165695
v -0.013141 0.024586 0.049325
v -0.013141 0.024586 0.165695
v -0.012153 0.022271 0.049325
v -0.012153 0.022271 0.165695
v -0.013141 0.024586 0.049325
v -0.015648 0.023428 0.049325
v -0.013141 0.024586 0.165695
v -0.015648 0.023428 0.165695
v -0.015648 0.023428 0.049325
v -0.014433 0.021219 0.049325
v -0.015648 0.023428 0.165695
v -0.014433 0.021219 0.165695
v -0.014433 0.021219 0.049325
v -0.016600 0.019955 0.049325
v -0.014433 0.021219 0.165695
v -0.016600 0.019955 0.165695
v -0.018027 0.022036 0.049325
v -0.018027 0.022036 0.165695
v -0.016600 0.019955 0.049325
v -0.016600 0.019955 0.165695
v -0.018027 0.022036 0.049325
v -0.020258 0.020424 0.049325
v -0.018027 0.022036 0.165695
v -0.020258 0.020424 0.165695
v -0.020258 0.020424 0.049325
v -0.018624 0.018492 0.049325
v -0.020258 0.020424 0.165695
v -0.018624 0.018492 0.165695
v -0.018624 0.018492 0.049325
v -0.020492 0.016837 0.049325
v -0.018624 0.018492 0.165695
v -0.020492 0.016837 0.165695
v -0.022311 0.018612 0.049325
v -0.022311 0.018612 0.165695
v -0.020492 0.016837 0.049325
v -0.020492 0.016837 0.165695
v -0.022311 0.018612 0.049325
v -0.024172 0.016602 0.049325
v -0.022311 0.018612 0.165695
v -0.024172 0.016602 0.165695
v -0.024172 0.016602 0.049325
v -0.022190 0.015018 0.049325
v -0.024172 0.016602 0.165695
v -0.022190 0.015018 0.165695
v -0.022190 0.015018 0.049325
v -0.023689 0.013044 0.049325
v -0.022190 0.015018 0.165695
v -0.023689 0.013044 0.165695
v -0.025827 0.014436 0.049325
v -0.025827 0.014436 0.165695
v -0.023689 0.013044 0.049325
v -0.023689 0.013044 0.165695
v -0.025827 0.014436 0.049325
v -0.027254 0.012113 0.049325
v -0.025827 0.014436 0.165695
v -0.027254 0.012113 0.165695
v -0.027254 0.012113 0.049325
v -0.024989 0.010934 0.049325
v -0.027254 0.012113 0.165695
v -0.024989 0.010934 0.165695
v -0.024989 0.010934 0.049325
v -0.026068 0.008711 0.049325
v -0.024989 0.010934 0.165695
v -0.026068 0.008711 0.165695
v -0.028441 0.009670 0.049325
v -0.028441 0.009670 0.165695
v -0.026068 0.008711 0.049325
v -0.026068 0.008711 0.165695
v -0.028441 0.009670 0.049325
v -0.029378 0.007120 0.049325
v -0.028441 0.009670 0.165695
v -0.029378 0.007120 0.165695
v -0.029378 0.007120 0.049325
v -0.026913 0.006395 0.049325
v -0.029378 0.007120 0.165695
v -0.026913 0.006395 0.165695
v -0.026913 0.006395 0.049325
v -0.027531 0.004008 0.049325
v -0.026913 0.006395 0.165695
v -0.027531 0.004008 0.165695
v -0.030053 0.004499 0.049325
v -0.030053 0.004499 0.165695
v -0.027531 0.004008 0.049325
v -0.027531 0.004008 0.165695
v -0.030053 0.004499 0.049325
v -0.030458 0.001821 0.049325
v -0.030053 0.004499 0.165695
v -0.030458 0.001821 0.165695
v -0.030458 0.001821 0.049325
v -0.027901 0.001579 0.049325
v -0.030458 0.001821 0.165695
v -0.027901 0.001579 0.165695
v -0.027901 0.001579 0.049325
v -0.028022 -0.000878 0.049325
v -0.027901 0.001579 0.165695
v -0.028022 -0.000878 0.165695
v -0.028022 -0.000878 0.049325
v -0.030593 -0.000878 0.049325
v -0.028022 -0.000878 0.165695
v -0.030593 -0.000878 0.165695
v -0.030593 -0.000878 0.049325
v -0.030458 -0.003578 0.049325
v -0.030593 -0.000878 0.165695
v -0.030458 -0.003578 0.165695
v -0.027901 -0.003336 0.049325
v -0.027901 -0.003336 0.165695
v -0.030458 -0.003578 0.049325
v -0.030458 -0.003578 0.165695
v -0.027901 -0.003336 0.049325
v -0.027531 -0.005765 0.049325
v -0.027901 -0.003336 0.165695
v -0.027531 -0.005765 0.165695
v -0.027531 -0.005765 0.049325
v -0.030053 -0.006256 0.049325
v -0.027531 -0.005765 0.165695
v -0.030053 -0.006256 0.165695
v -0.030053 -0.006256 0.049325
v -0.029378 -0.008877 0.049325
v -0.030053 -0.006256 0.165695
v -0.029378 -0.008877 0.165695
v -0.026913 -0.008152 0.049325
v -0.026913 -0.008152 0.165695
v -0.029378 -0.008877 0.049325
v -0.029378 -0.008877 0.165695
v -0.026913 -0.008152 0.049325
v -0.026068 -0.010468 0.049325
v -0.026913 -0.008152 0.165695
v -0.026068 -0.010468 0.165695
v -0.026068 -0.010468 0.049325
v -0.028441 -0.011427 0.049325
v -0.026068 -0.010468 0.165695
v -0.028441 -0.011427 0.165695
v -0.028441 -0.011427 0.049325
v -0.027254 -0.013870 0.049325
v -0.028441 -0.011427 0.165695
v -0.027254 -0.013870 0.165695
v -0.024989 -0.012691 0.049325
v -0.024989 -0.012691 0.165695
v -0.027254 -0.013870 0.049325
v -0.027254 -0.013870 0.165695
v -0.024989 -0.012691 0.049325
v -0.023689 -0.014801 0.049325
v -0.024989 -0.012691 0.165695
v -0.023689 -0.014801 0.165695
v -0.023689 -0.014801 0.049325
v -0.025827 -0.016193 0.049325
v -0.023689 -0.014801 0.165695
v -0.025827 -0.016193 0.165695
v -0.025827 -0.016193 0.049325
v -0.024172 -0.018359 0.049325
v -0.025827 -0.016193 0.165695
v -0.024172 -0.018359 0.165695
v -0.022190 -0.016775 0.049325
v -0.022190 -0.016775 0.165695
v -0.024172 -0.018359 0.049325
v -0.024172 -0.018359 0.165695
v -0.022190 -0.016775 0.049325
v -0.020492 -0.018594 0.049325
v -0.022190 -0.016775 0.165695
v -0.020492 -0.018594 0.165695
v -0.020492 -0.018594 0.049325
v -0.022311 -0.020369 0.049325
v -0.020492 -0.018594 0.165695
v -0.022311 -0.020369 0.165695
v -0.022311 -0.020369 0.049325
v -0.020258 -0.022181 0.049325
v -0.022311 -0.020369 0.165695
v -0.020258 -0.022181 0.165695
v -0.018624 -0.020249 0.049325
v -0.018624 -0.020249 0.165695
v -0.020258 -0.022181 0.049325
v -0.020258 -0.022181 0.165695
v -0.018624 -0.020249 0.049325
v -0.016600 -0.021712 0.049325
v -0.018624 -0.020249 0.165695
v -0.016600 -0.021712 0.165695
v -0.016600 -0.021712 0.049325
v -0.018027 -0.023793 0.049325
v -0.016600 -0.021712 0.165695
v -0.018027 -0.023793 0.165695
v -0.018027 -0.023793 0.049325
v -0.015648 -0.025185 0.049325
v -0.018027 -0.023793 0.165695
v -0.015648 -0.025185 0.165695
v -0.014433 -0.022976 0.049325
v -0.014433 -0.022976 0.165695
v -0.015648 -0.025185 0.049325
v -0.015648 -0.025185 0.165695
v -0.014433 -0.022976 0.049325
v -0.012153 -0.024027 0.049325
v -0.014433 -0.022976 0.165695
v -0.012153 -0.024027 0.165695
v -0.012153 -0.024027 0.049325
v -0.013141 -0.026343 0.049325
v -0.012153 -0.024027 0.165695
v -0.013141 -0.026343 0.165695
v -0.013141 -0.026343 0.049325
v -0.010527 -0.027252 0.049325
v -0.013141 -0.026343 0.165695
v -0.010527 -0.027252 0.165695
v -0.009781 -0.024851 0.049325
v -0.009781 -0.024851 0.165695
v -0.010527 -0.027252 0.049325
v -0.010527 -0.027252 0.165695
v -0.009781 -0.024851 0.049325
v -0.007330 -0.025448 0.049325
v -0.009781 -0.024851 0.165695
v -0.007330 -0.025448 0.165695
v -0.007330 -0.025448 0.049325
v -0.007835 -0.027906 0.049325
v -0.007330 -0.025448 0.165695
v -0.007835 -0.027906 0.165695
v -0.007835 -0.027906 0.049325
v -0.005093 -0.028304 0.049325
v -0.007835 -0.027906 0.165695
v -0.005093 -0.028304 0.165695
v -0.004837 -0.025810 0.049325
v -0.004837 -0.025810 0.165695
v -0.005093 -0.028304 0.049325
v -0.005093 -0.028304 0.165695
v -0.004837 -0.025810 0.049325
v -0.002315 -0.025931 0.049325
v -0.004837 -0.025810 0.165695
v -0.002315 -0.025931 0.165695
v -0.002315 -0.025931 0.049325
v -0.002315 -0.028438 0.049325
v -0.002315 -0.025931 0.165695
v -0.002315 -0.028439 0.165695
v 0.000455 -0.028304 0.049325
v 0.000455 -0.028304 0.165695
v -0.002315 -0.028438 0.049325
v -0.002315 -0.028439 0.165695
v 0.000199 -0.025810 0.049325
v 0.000199 -0.025810 0.165695
v 0.000455 -0.028304 0.049325
v 0.000455 -0.028304 0.165695
v 0.002699 -0.025448 0.049325
v 0.002699 -0.025448 0.165695
v 0.000199 -0.025810 0.049325
v 0.000199 -0.025810 0.165695
v 0.002699 -0.025448 0.049325
v 0.003197 -0.027906 0.049325
v 0.002699 -0.025448 0.165695
v 0.003197 -0.027906 0.165695
v 0.005889 -0.027252 0.049325
v 0.005889 -0.027252 0.165695
v 0.003197 -0.027906 0.049325
v 0.003197 -0.027906 0.165695
v 0.005143 -0.024851 0.049325
v 0.005143 -0.024851 0.165695
v 0.005889 -0.027252 0.049325
v 0.005889 -0.027252 0.165695
v 0.007515 -0.024027 0.049325
v 0.007515 -0.024027 0.165695
v 0.005143 -0.024851 0.049325
v 0.005143 -0.024851 0.165695
v 0.007515 -0.024027 0.049325
v 0.008503 -0.026343 0.049325
v 0.007515 -0.024027 0.165695
v 0.008503 -0.026343 0.165695
v 0.011010 -0.025185 0.049325
v 0.011010 -0.025185 0.165695
v 0.008503 -0.026343 0.049325
v 0.008503 -0.026343 0.165695
v 0.009795 -0.022976 0.049325
v 0.009795 -0.022976 0.165695
v 0.011010 -0.025185 0.049325
v 0.011010 -0.025185 0.165695
v 0.011962 -0.021712 0.049325
v 0.011962 -0.021712 0.165695
v 0.009795 -0.022976 0.049325
v 0.009795 -0.022976 0.165695
v 0.011962 -0.021712 0.049325
v 0.013390 -0.023793 0.049325
v 0.011962 -0.021712 0.165695
v 0.013390 -0.023793 0.165695
v 0.015620 -0.022181 0.049325
v 0.015620 -0.022181 0.165695
v 0.013390 -0.023793 0.049325
v 0.013390 -0.023793 0.165695
v 0.013986 -0.020249 0.049325
v 0.013986 -0.020249 0.165695
v 0.015620 -0.022181 0.049325
v 0.015620 -0.022181 0.165695
v 0.015854 -0.018594 0.049325
v 0.015854 -0.018594 0.165695
v 0.013986 -0.020249 0.049325
v 0.013986 -0.020249 0.165695
v 0.015854 -0.018594 0.049325
v 0.017673 -0.020369 0.049325
v 0.015854 -0.018594 0.165695
v 0.017673 -0.020369 0.165695
v 0.019541 -0.018359 0.049325
v 0.019541 -0.018359 0.165695
v 0.017673 -0.020369 0.049325
v 0.017673 -0.020369 0.165695
v 0.017552 -0.016775 0.049325
v 0.017552 -0.016775 0.165695
v 0.019541 -0.018359 0.049325
v 0.019541 -0.018359 0.165695
v 0.019051 -0.014801 0.049325
v 0.019051 -0.014801 0.165695
v 0.017552 -0.016775 0.049325
v 0.017552 -0.016775 0.165695
v 0.019051 -0.014801 0.049325
v 0.021189 -0.016193 0.049325
v 0.019051 -0.014801 0.165695
v 0.021189 -0.016193 0.165695
v 0.022616 -0.013870 0.049325
v 0.022616 -0.013870 0.165695
v 0.021189 -0.016193 0.049325
v 0.021189 -0.016193 0.165695
v 0.020351 -0.012691 0.049325
v 0.020351 -0.012691 0.165695
v 0.022616 -0.013870 0.049325
v 0.022616 -0.013870 0.165695
v 0.021430 -0.010468 0.049325
v 0.021430 -0.010468 0.165695
v 0.020351 -0.012691 0.049325
v 0.020351 -0.012691 0.165695
v 0.021430 -0.010468 0.049325
v 0.023803 -0.011427 0.049325
v 0.021430 -0.010468 0.165695
v 0.023803 -0.011427 0.165695
v 0.024740 -0.008877 0.049325
v 0.024740 -0.008877 0.165695
v 0.023803 -0.011427 0.049325
v 0.023803 -0.011427 0.165695
v 0.022276 -0.008152 0.049325
v 0.022276 -0.008152 0.165695
v 0.024740 -0.008877 0.049325
v 0.024740 -0.008877 0.165695
v 0.022893 -0.005765 0.049325
v 0.022893 -0.005765 0.165695
v 0.022276 -0.008152 0.049325
v 0.022276 -0.008152 0.165695
v 0.022893 -0.005765 0.049325
v 0.025415 -0.006256 0.049325
v 0.022893 -0.005765 0.165695
v 0.025415 -0.006256 0.165695
v 0.025820 -0.003578 0.049325
v 0.025820 -0.003578 0.165695
v 0.025415 -0.006256 0.049325
v 0.025415 -0.006256 0.165695
v 0.023263 -0.003336 0.049325
v 0.023263 -0.003336 0.165695
v 0.025820 -0.003578 0.049325
v 0.025820 -0.003578 0.165695
v 0.023384 -0.000878 0.049325
v 0.023384 -0.000878 0.165695
v 0.023263 -0.003336 0.049325
v 0.023263 -0.003336 0.165695
v 0.025955 -0.000878 0.049325
v 0.025955 -0.000878 0.165695
v 0.023384 -0.000878 0.049325
v 0.023384 -0.000878 0.165695
v 0.025820 0.001821 0.049325
v 0.025820 0.001821 0.165695
v 0.025955 -0.000878 0.049325
v 0.025955 -0.000878 0.165695
v 0.025820 0.001821 0.049325
v 0.023263 0.001579 0.049325
v 0.025820 0.001821 0.165695
v 0.023263 0.001579 0.165695
v 0.022893 0.004008 0.049325
v 0.022893 0.004008 0.165695
v 0.023263 0.001579 0.049325
v 0.023263 0.001579 0.165695
v 0.025415 0.004499 0.049325
v 0.025415 0.004499 0.165695
v 0.022893 0.004008 0.049325
v 0.022893 0.004008 0.165695
v 0.024740 0.007120 0.049325
v 0.024740 0.007120 0.165695
v 0.025415 0.004499 0.049325
v 0.025415 0.004499 0.165695
v 0.024740 0.007120 0.049325
v 0.022276 0.006395 0.049325
v 0.024740 0.007120 0.165695
v 0.022276 0.006395 0.165695
v 0.021430 0.008711 0.049325
v 0.021430 0.008711 0.165695
v 0.022276 0.006395 0.049325
v 0.022276 0.006395 0.165695
v 0.023803 0.009670 0.049325
v 0.023803 0.009670 0.165695
v 0.021430 0.008711 0.049325
v 0.021430 0.008711 0.165695
v 0.022616 0.012113 0.049325
v 0.022616 0.012113 0.165695
v 0.023803 0.009670 0.049325
v 0.023803 0.009670 0.165695
v 0.022616 0.012113 0.049325
v 0.020351 0.010934 0.049325
v 0.022616 0.012113 0.165695
v 0.020351 0.010934 0.165695
v 0.019051 0.013044 0.049325
v 0.019051 0.013044 0.165695
v 0.020351 0.010934 0.049325
v 0.020351 0.010934 0.165695
v 0.021189 0.014436 0.049325
v 0.021189 0.014436 0.165695
v 0.019051 0.013044 0.049325
v 0.019051 0.013044 0.165695
v 0.019541 0.016602 0.049325
v 0.019541 0.016602 0.165695
v 0.021189 0.014436 0.049325
v 0.021189 0.014436 0.165695
v 0.019541 0.016602 0.049325
v 0.017552 0.015018 0.049325
v 0.019541 0.016602 0.165695
v 0.017552 0.015018 0.165695
v 0.015854 0.016837 0.049325
v 0.015854 0.016837 0.165695
v 0.017552 0.015018 0.049325
v 0.017552 0.015018 0.165695
v 0.017673 0.018612 0.049325
v 0.017673 0.018612 0.165695
v 0.015854 0.016837 0.049325
v 0.015854 0.016837 0.165695
v 0.015620 0.020424 0.049325
v 0.015620 0.020424 0.165695
v 0.017673 0.018612 0.049325
v 0.017673 0.018612 0.165695
v 0.015620 0.020424 0.049325
v 0.013986 0.018492 0.049325
v 0.015620 0.020424 0.165695
v 0.013986 0.018492 0.165695
v 0.011962 0.019955 0.049325
v 0.011962 0.019955 0.165695
v 0.013986 0.018492 0.049325
v 0.013986 0.018492 0.165695
v 0.013390 0.022036 0.049325
v 0.013390 0.022036 0.165695
v 0.011962 0.019955 0.049325
v 0.011962 0.019955 0.165695
v 0.011010 0.023428 0.049325
v 0.011010 0.023428 0.165695
v 0.013390 0.022036 0.049325
v 0.013390 0.022036 0.165695
v 0.011010 0.023428 0.049325
v 0.009795 0.021219 0.049325
v 0.011010 0.023428 0.165695
v 0.009795 0.021219 0.165695
v 0.007515 0.022271 0.049325
v 0.007515 0.022271 0.165695
v 0.009795 0.021219 0.049325
v 0.009795 0.021219 0.165695
v 0.008503 0.024586 0.049325
v 0.008503 0.024586 0.165695
v 0.007515 0.022271 0.049325
v 0.007515 0.022271 0.165695
v 0.005889 0.025495 0.049325
v 0.005889 0.025495 0.165695
v 0.008503 0.024586 0.049325
v 0.008503 0.024586 0.165695
v 0.005889 0.025495 0.049325
v 0.005143 0.023095 0.049325
v 0.005889 0.025495 0.165695
v 0.005143 0.023094 0.165695
v 0.002699 0.023691 0.049325
v 0.002699 0.023691 0.165695
v 0.005143 0.023095 0.049325
v 0.005143 0.023094 0.165695
v 0.003197 0.026149 0.049325
v 0.003197 0.026149 0.165695
v 0.002699 0.023691 0.049325
v 0.002699 0.023691 0.165695
v 0.000455 0.026547 0.049325
v 0.000455 0.026547 0.165695
v 0.003197 0.026149 0.049325
v 0.003197 0.026149 0.165695
v 0.000455 0.026547 0.049325
v 0.000199 0.024053 0.049325
v 0.000455 0.026547 0.165695
v 0.000199 0.024053 0.165695
v -0.002315 0.024174 0.049325
v -0.002315 0.024174 0.165695
v 0.000199 0.024053 0.049325
v 0.000199 0.024053 0.165695
v -0.002315 0.026682 0.049325
v -0.002315 0.026682 0.165695
v -0.002315 0.024174 0.049325
v -0.002315 0.024174 0.165695
v 0.017673 0.018612 0.049325
v 0.015854 0.016837 0.049325
v 0.015620 0.020424 0.049325
v 0.013986 0.018492 0.049325
v 0.013390 0.022036 0.049325
v 0.011962 0.019955 0.049325
v 0.011010 0.023428 0.049325
v 0.009795 0.021219 0.049325
v 0.008503 0.024586 0.049325
v 0.007515 0.022271 0.049325
v 0.005889 0.025495 0.049325
v 0.005143 0.023095 0.049325
v 0.003197 0.026149 0.049325
v 0.002699 0.023691 0.049325
v 0.000455 0.026547 0.049325
v 0.000199 0.024053 0.049325
v -0.005093 0.026547 0.049325
v -0.002315 0.026682 0.049325
v -0.004837 0.024053 0.049325
v -0.002315 0.024174 0.049325
v -0.010527 0.025495 0.049325
v -0.007835 0.026149 0.049325
v -0.009781 0.023095 0.049325
v -0.007330 0.023691 0.049325
v -0.015648 0.023428 0.049325
v -0.013141 0.024586 0.049325
v -0.014433 0.021219 0.049325
v -0.012153 0.022271 0.049325
v -0.020258 0.020424 0.049325
v -0.018027 0.022036 0.049325
v -0.018624 0.018492 0.049325
v -0.016600 0.019955 0.049325
v -0.024172 0.016602 0.049325
v -0.022311 0.018612 0.049325
v -0.022190 0.015018 0.049325
v -0.020492 0.016837 0.049325
v -0.027254 0.012113 0.049325
v -0.025827 0.014436 0.049325
v -0.024989 0.010934 0.049325
v -0.023689 0.013044 0.049325
v -0.029378 0.007120 0.049325
v -0.028441 0.009670 0.049325
v -0.026913 0.006395 0.049325
v -0.026068 0.008711 0.049325
v -0.030458 0.001821 0.049325
v -0.030053 0.004499 0.049325
v -0.027901 0.001579 0.049325
v -0.027531 0.004008 0.049325
v -0.030593 -0.000878 0.049325
v -0.028022 -0.000878 0.049325
v -0.030458 -0.003578 0.049325
v -0.027901 -0.003336 0.049325
v -0.027531 -0.005765 0.049325
v -0.030053 -0.006256 0.049325
v -0.029378 -0.008877 0.049325
v -0.026913 -0.008152 0.049325
v -0.026068 -0.010468 0.049325
v -0.028441 -0.011427 0.049325
v -0.027254 -0.013870 0.049325
v -0.024989 -0.012691 0.049325
v -0.023689 -0.014801 0.049325
v -0.025827 -0.016193 0.049325
v -0.024172 -0.018359 0.049325
v -0.022190 -0.016775 0.049325
v -0.020492 -0.018594 0.049325
v -0.022311 -0.020369 0.049325
v -0.020258 -0.022181 0.049325
v -0.018624 -0.020249 0.049325
v -0.016600 -0.021712 0.049325
v -0.018027 -0.023793 0.049325
v -0.015648 -0.025185 0.049325
v -0.014433 -0.022976 0.049325
v -0.012153 -0.024027 0.049325
v -0.013141 -0.026343 0.049325
v -0.010527 -0.027252 0.049325
v -0.009781 -0.024851 0.049325
v -0.007330 -0.025448 0.049325
v -0.007835 -0.027906 0.049325
v -0.005093 -0.028304 0.049325
v -0.004837 -0.025810 0.049325
v -0.002315 -0.025931 0.049325
v 0.000455 -0.028304 0.049325
v -0.002315 -0.028438 0.049325
v 0.000199 -0.025810 0.049325
v 0.002699 -0.025448 0.049325
v 0.005889 -0.027252 0.049325
v 0.003197 -0.027906 0.049325
v 0.005143 -0.024851 0.049325
v 0.007515 -0.024027 0.049325
v 0.011010 -0.025185 0.049325
v 0.008503 -0.026343 0.049325
v 0.009795 -0.022976 0.049325
v 0.011962 -0.021712 0.049325
v 0.015620 -0.022181 0.049325
v 0.013390 -0.023793 0.049325
v 0.013986 -0.020249 0.049325
v 0.015854 -0.018594 0.049325
v 0.019541 -0.018359 0.049325
v 0.017673 -0.020369 0.049325
v 0.017552 -0.016775 0.049325
v 0.017552 0.015018 0.049325
v 0.019051 -0.014801 0.049325
v 0.022616 -0.013870 0.049325
v 0.021189 -0.016193 0.049325
v 0.020351 -0.012691 0.049325
v 0.024740 -0.008877 0.049325
v 0.023803 -0.011427 0.049325
v 0.022276 -0.008152 0.049325
v 0.021430 -0.010468 0.049325
v 0.025820 -0.003578 0.049325
v 0.025415 -0.006256 0.049325
v 0.023263 -0.003336 0.049325
v 0.022893 -0.005765 0.049325
v 0.025955 -0.000878 0.049325
v 0.023384 -0.000878 0.049325
v 0.025820 0.001821 0.049325
v 0.023263 0.001579 0.049325
v 0.022893 0.004008 0.049325
v 0.025415 0.004499 0.049325
v 0.024740 0.007120 0.049325
v 0.022276 0.006395 0.049325
v 0.021430 0.008711 0.049325
v 0.023803 0.009670 0.049325
v 0.022616 0.012113 0.049325
v 0.020351 0.010934 0.049325
v 0.019051 0.013044 0.049325
v 0.019541 0.016602 0.049325
v 0.021189 0.014436 0.049325
v 0.023803 0.009670 0.165695
v 0.022616 0.012113 0.165695
v 0.021430 0.008711 0.165695
v 0.020351 0.010934 0.165695
v 0.025415 0.004499 0.165695
v 0.024740 0.007120 0.165695
v 0.022893 0.004008 0.165695
v 0.022276 0.006395 0.165695
v 0.025955 -0.000878 0.165695
v 0.025820 0.001821 0.165695
v 0.023384 -0.000878 0.165695
v 0.023263 0.001579 0.165695
v 0.023263 -0.003336 0.165695
v 0.025820 -0.003578 0.165695
v 0.025415 -0.006256 0.165695
v 0.022893 -0.005765 0.165695
v 0.022276 -0.008152 0.165695
v 0.024740 -0.008877 0.165695
v 0.023803 -0.011427 0.165695
v 0.021430 -0.010468 0.165695
v 0.020351 -0.012691 0.165695
v 0.022616 -0.013870 0.165695
v 0.021189 -0.016193 0.165695
v 0.019051 -0.014801 0.165695
v 0.019051 0.013044 0.165695
v 0.019541 -0.018359 0.165695
v 0.017552 -0.016775 0.165695
v 0.017673 -0.020369 0.165695
v 0.015854 -0.018594 0.165695
v 0.015620 -0.022181 0.165695
v 0.013986 -0.020249 0.165695
v 0.013390 -0.023793 0.165695
v 0.011962 -0.021712 0.165695
v 0.011010 -0.025185 0.165695
v 0.009795 -0.022976 0.165695
v 0.008503 -0.026343 0.165695
v 0.007515 -0.024027 0.165695
v 0.005889 -0.027252 0.165695
v 0.005143 -0.024851 0.165695
v 0.003197 -0.027906 0.165695
v 0.002699 -0.025448 0.165695
v 0.000455 -0.028304 0.165695
v 0.000199 -0.025810 0.165695
v -0.002315 -0.028439 0.165695
v -0.002315 -0.025931 0.165695
v -0.007835 -0.027906 0.165695
v -0.005093 -0.028304 0.165695
v -0.007330 -0.025448 0.165695
v -0.004837 -0.025810 0.165695
v -0.013141 -0.026343 0.165695
v -0.010527 -0.027252 0.165695
v -0.012153 -0.024027 0.165695
v -0.009781 -0.024851 0.165695
v -0.018027 -0.023793 0.165695
v -0.015648 -0.025185 0.165695
v -0.016600 -0.021712 0.165695
v -0.014433 -0.022976 0.165695
v -0.022311 -0.020369 0.165695
v -0.020258 -0.022181 0.165695
v -0.020492 -0.018594 0.165695
v -0.018624 -0.020249 0.165695
v -0.025827 -0.016193 0.165695
v -0.024172 -0.018359 0.165695
v -0.023689 -0.014801 0.165695
v -0.022190 -0.016775 0.165695
v -0.028441 -0.011427 0.165695
v -0.027254 -0.013870 0.165695
v -0.026068 -0.010468 0.165695
v -0.024989 -0.012691 0.165695
v -0.030053 -0.006256 0.165695
v -0.029378 -0.008877 0.165695
v -0.027531 -0.005765 0.165695
v -0.026913 -0.008152 0.165695
v -0.030593 -0.000878 0.165695
v -0.030458 -0.003578 0.165695
v -0.028022 -0.000878 0.165695
v -0.027901 -0.003336 0.165695
v -0.027901 0.001579 0.165695
v -0.030458 0.001821 0.165695
v -0.030053 0.004499 0.165695
v -0.027531 0.004008 0.165695
v -0.026913 0.006395 0.165695
v -0.029378 0.007120 0.165695
v -0.028441 0.009670 0.165695
v -0.026068 0.008711 0.165695
v -0.024989 0.010934 0.165695
v -0.027254 0.012113 0.165695
v -0.025827 0.014436 0.165695
v -0.023689 0.013044 0.165695
v -0.022190 0.015018 0.165695
v -0.024172 0.016602 0.165695
v -0.022311 0.018612 0.165695
v -0.020492 0.016837 0.165695
v -0.018624 0.018492 0.165695
v -0.020258 0.020424 0.165695
v -0.018027 0.022036 0.165695
v -0.016600 0.019955 0.165695
v -0.014433 0.021219 0.165695
v -0.015648 0.023428 0.165695
v -0.013141 0.024586 0.165695
v -0.012153 0.022271 0.165695
v -0.009781 0.023094 0.165695
v -0.010527 0.025495 0.165695
v -0.007835 0.026149 0.165695
v -0.007330 0.023691 0.165695
v -0.004837 0.024053 0.165695
v -0.005093 0.026547 0.165695
v -0.002315 0.026682 0.165695
v -0.002315 0.024174 0.165695
v 0.000199 0.024053 0.165695
v 0.003197 0.026149 0.165695
v 0.000455 0.026547 0.165695
v 0.002699 0.023691 0.165695
v 0.005143 0.023094 0.165695
v 0.008503 0.024586 0.165695
v 0.005889 0.025495 0.165695
v 0.007515 0.022271 0.165695
v 0.009795 0.021219 0.165695
v 0.013390 0.022036 0.165695
v 0.011010 0.023428 0.165695
v 0.011962 0.019955 0.165695
v 0.013986 0.018492 0.165695
v 0.017673 0.018612 0.165695
v 0.015620 0.020424 0.165695
v 0.015854 0.016837 0.165695
v 0.017552 0.015018 0.165695
v 0.019541 0.016602 0.165695
v 0.021189 0.014436 0.165695
v 0.017582 0.000008 0.175213
v 0.017582 0.000008 -0.061646
v 0.011642 0.013606 0.175213
v 0.011642 0.013606 -0.061646
v 0.011642 0.013606 0.175213
v 0.011642 0.013606 -0.061646
v -0.002652 0.019240 0.175213
v -0.002652 0.019240 -0.061646
v -0.002652 0.019240 0.175213
v -0.002652 0.019240 -0.061646
v -0.016967 0.013606 0.175213
v -0.016967 0.013606 -0.061646
v -0.016967 0.013606 0.175213
v -0.016967 0.013606 -0.061646
v -0.022906 0.000008 0.175213
v -0.022906 0.000008 -0.061646
v -0.022906 0.000008 0.175213
v -0.022906 0.000008 -0.061646
v -0.016967 -0.013590 0.175213
v -0.016967 -0.013590 -0.061646
v -0.016967 -0.013590 0.175213
v -0.016967 -0.013590 -0.061646
v -0.002652 -0.019224 0.175213
v -0.002652 -0.019224 -0.061646
v -0.002652 -0.019224 0.175213
v -0.002652 -0.019224 -0.061646
v 0.011642 -0.013590 0.175213
v 0.011642 -0.013590 -0.061646
v 0.011642 -0.013590 0.175213
v 0.011642 -0.013590 -0.061646
v 0.017582 0.000008 0.175213
v 0.017582 0.000008 -0.061646
v -0.002652 0.015999 0.178215
v 0.009401 0.011256 0.178215
v -0.002652 0.019240 0.175213
v 0.011642 0.013606 0.175213
v -0.002652 0.015999 0.178215
v -0.002652 0.019240 0.175213
v -0.014726 0.011256 0.178215
v -0.016967 0.013606 0.175213
v -0.014726 0.011256 0.178215
v -0.016967 0.013606 0.175213
v -0.019643 0.000008 0.178215
v -0.022906 0.000008 0.175213
v -0.014726 -0.011262 0.178215
v -0.019643 0.000008 0.178215
v -0.016967 -0.013590 0.175213
v -0.022906 0.000008 0.175213
v -0.002652 -0.016005 0.178215
v -0.014726 -0.011262 0.178215
v -0.002652 -0.019224 0.175213
v -0.016967 -0.013590 0.175213
v -0.002652 -0.016005 0.178215
v -0.002652 -0.019224 0.175213
v 0.009401 -0.011262 0.178215
v 0.011642 -0.013590 0.175213
v 0.009401 -0.011262 0.178215
v 0.011642 -0.013590 0.175213
v 0.014318 0.000008 0.178215
v 0.017582 0.000008 0.175213
v 0.009401 0.011256 0.178215
v 0.014318 0.000008 0.178215
v 0.011642 0.013606 0.175213
v 0.017582 0.000008 0.175213
v -0.002652 -0.016004 -0.064648
v 0.009401 -0.011262 -0.064648
v -0.002652 -0.019224 -0.061646
v 0.011642 -0.013590 -0.061646
v -0.002652 -0.016004 -0.064648
v -0.002652 -0.019224 -0.061646
v -0.014726 -0.011262 -0.064648
v -0.016967 -0.013590 -0.061646
v -0.014726 -0.011262 -0.064648
v -0.016967 -0.013590 -0.061646
v -0.019643 0.000008 -0.064648
v -0.022906 0.000008 -0.061646
v -0.014726 0.011256 -0.064648
v -0.019643 0.000008 -0.064648
v -0.016967 0.013606 -0.061646
v -0.022906 0.000008 -0.061646
v -0.002652 0.015999 -0.064648
v -0.014726 0.011256 -0.064648
v -0.002652 0.019240 -0.061646
v -0.016967 0.013606 -0.061646
v -0.002652 0.015999 -0.064648
v -0.002652 0.019240 -0.061646
v 0.009401 0.011256 -0.064648
v 0.011642 0.013606 -0.061646
v 0.009401 0.011256 -0.064648
v 0.011642 0.013606 -0.061646
v 0.014318 0.000008 -0.064648
v 0.017582 0.000008 -0.061646
v 0.009401 -0.011262 -0.064648
v 0.014318 0.000008 -0.064648
v 0.011642 -0.013590 -0.061646
v 0.017582 0.000008 -0.061646
v 0.009401 -0.011262 -0.064648
v 0.009401 -0.011262 -0.175213
v 0.014318 0.000008 -0.064648
v 0.014318 0.000008 -0.175213
v -0.002652 -0.016004 -0.064648
v -0.002652 -0.016004 -0.175213
v 0.009401 -0.011262 -0.064648
v 0.009401 -0.011262 -0.175213
v -0.014726 -0.011262 -0.064648
v -0.014726 -0.011262 -0.175213
v -0.002652 -0.016004 -0.064648
v -0.002652 -0.016004 -0.175213
v -0.019643 0.000008 -0.064648
v -0.019643 0.000008 -0.175213
v -0.014726 -0.011262 -0.064648
v -0.014726 -0.011262 -0.175213
v -0.014726 0.011256 -0.064648
v -0.014726 0.011256 -0.175213
v -0.019643 0.000008 -0.064648
v -0.019643 0.000008 -0.175213
v -0.002652 0.015999 -0.064648
v -0.002652 0.015999 -0.175213
v -0.014726 0.011256 -0.064648
v -0.014726 0.011256 -0.175213
v 0.009401 0.011256 -0.064648
v 0.009401 0.011256 -0.175213
v -0.002652 0.015999 -0.064648
v -0.002652 0.015999 -0.175213
v 0.014318 0.000008 -0.064648
v 0.014318 0.000008 -0.175213
v 0.009401 0.011256 -0.064648
v 0.009401 0.011256 -0.175213
v -0.002652 -0.012785 -0.178215
v 0.007139 -0.008934 -0.178215
v -0.002652 -0.016004 -0.175213
v 0.009401 -0.011262 -0.175213
v -0.002652 -0.012785 -0.178215
v -0.002652 -0.016004 -0.175213
v -0.012463 -0.008934 -0.178215
v -0.014726 -0.011262 -0.175213
v -0.012463 -0.008934 -0.178215
v -0.014726 -0.011262 -0.175213
v -0.016358 0.000008 -0.178215
v -0.019643 0.000008 -0.175213
v -0.012463 0.008928 -0.178215
v -0.016358 0.000008 -0.178215
v -0.014726 0.011256 -0.175213
v -0.019643 0.000008 -0.175213
v -0.002652 0.012779 -0.178215
v -0.012463 0.008928 -0.178215
v -0.002652 0.015999 -0.175213
v -0.014726 0.011256 -0.175213
v -0.002652 0.012779 -0.178215
v -0.002652 0.015999 -0.175213
v 0.007139 0.008928 -0.178215
v 0.009401 0.011256 -0.175213
v 0.007139 0.008928 -0.178215
v 0.009401 0.011256 -0.175213
v 0.011033 0.000008 -0.178215
v 0.014318 0.000008 -0.175213
v 0.007139 -0.008934 -0.178215
v 0.011033 0.000008 -0.178215
v 0.009401 -0.011262 -0.175213
v 0.014318 0.000008 -0.175213
v -0.077884 0.019871 -0.156829
v -0.074882 0.022178 -0.159113
v -0.077884 0.000008 -0.165053
v -0.074882 0.000008 -0.168316
v -0.077884 -0.019877 -0.156829
v -0.077884 0.000008 -0.165053
v -0.074882 -0.022183 -0.159113
v -0.074882 0.000008 -0.168316
v 0.011033 0.000008 -0.178215
v 0.007139 -0.008934 -0.178215
v 0.007139 0.008928 -0.178215
v -0.002652 0.012779 -0.178215
v -0.002652 -0.012785 -0.178215
v -0.012463 -0.008934 -0.178215
v -0.012463 0.008928 -0.178215
v -0.016358 0.000008 -0.178215
v 0.014318 0.000008 0.178215
v 0.009401 0.011256 0.178215
v 0.009401 -0.011262 0.178215
v -0.002652 -0.016005 0.178215
v -0.002652 0.015999 0.178215
v -0.014726 0.011256 0.178215
v -0.014726 -0.011262 0.178215
v -0.019643 0.000008 0.178215
v -0.071885 -0.034607 -0.136946
v 0.071885 -0.034607 -0.136946
v -0.071885 -0.024471 -0.112472
v 0.071885 -0.024471 -0.112472
v -0.071885 -0.024471 -0.112472
v 0.071885 -0.024471 -0.112472
v -0.071885 0.000002 -0.102337
v 0.071885 0.000002 -0.102337
v -0.071885 0.000002 -0.102337
v 0.071885 0.000002 -0.102337
v -0.071885 0.024475 -0.112472
v 0.071885 0.024475 -0.112472
v -0.071885 0.024475 -0.112472
v 0.071885 0.024475 -0.112472
v -0.071885 0.034611 -0.136945
v 0.071885 0.034611 -0.136945
v -0.071885 0.034611 -0.136945
v 0.071885 0.034611 -0.136945
v -0.071885 0.024475 -0.161419
v 0.071885 0.024475 -0.161419
v -0.071885 0.024475 -0.161419
v 0.071885 0.024475 -0.161419
v -0.071885 0.000002 -0.171554
v 0.071885 0.000002 -0.171554
v -0.071885 0.000002 -0.171554
v 0.071885 0.000002 -0.171554
v -0.071885 -0.024471 -0.161419
v 0.071885 -0.024471 -0.161419
v -0.071885 -0.024471 -0.161419
v 0.071885 -0.024471 -0.161419
v -0.071885 -0.034607 -0.136946
v 0.071885 -0.034607 -0.136946
v 0.071885 0.000002 -0.171554
v 0.074880 0.000002 -0.168303
v 0.071885 -0.024471 -0.161419
v 0.074880 -0.022180 -0.159118
v 0.077884 -0.019879 -0.156827
v 0.077884 0.000002 -0.165060
v 0.077884 0.019883 -0.156827
v 0.077884 0.000002 -0.165060
v 0.074880 0.022175 -0.159118
v 0.074880 0.000002 -0.168303
v 0.071885 0.024475 -0.161419
v 0.071885 0.000002 -0.171554
v 0.071885 0.024475 -0.161419
v 0.071885 0.034611 -0.136945
v 0.074880 0.022175 -0.159118
v 0.074880 0.031359 -0.136945
v 0.077884 0.019883 -0.156827
v 0.077884 0.028117 -0.136945
v 0.077884 0.019883 -0.117064
v 0.077884 0.028117 -0.136945
v 0.074880 0.022175 -0.114764
v 0.071885 0.024475 -0.112472
v 0.071885 0.034611 -0.136945
v 0.074880 0.031359 -0.136945
v 0.071885 0.000002 -0.102337
v 0.074880 0.000002 -0.105579
v 0.071885 0.024475 -0.112472
v 0.074880 0.022175 -0.114764
v 0.077884 0.000002 -0.108831
v 0.077884 0.019883 -0.117064
v 0.077884 -0.019879 -0.117064
v 0.077884 0.000002 -0.108831
v 0.074880 -0.022180 -0.114764
v 0.071885 0.000002 -0.102337
v 0.071885 -0.024471 -0.112472
v 0.074880 0.000002 -0.105579
v 0.077884 -0.028113 -0.136946
v 0.077884 -0.019879 -0.117064
v 0.074880 -0.031365 -0.136946
v 0.071885 -0.034607 -0.136946
v 0.071885 -0.024471 -0.112472
v 0.074880 -0.022180 -0.114764
v 0.071885 -0.034607 -0.136946
v 0.071885 -0.024471 -0.161419
v 0.074880 -0.031365 -0.136946
v 0.074880 -0.022180 -0.159118
v 0.077884 -0.028113 -0.136946
v 0.077884 -0.019879 -0.156827
v -0.074880 0.022175 -0.159118
v -0.071885 0.024475 -0.161419
v -0.074880 0.000002 -0.168303
v -0.071885 0.000002 -0.171554
v -0.074880 -0.022180 -0.159118
v -0.074880 0.000002 -0.168303
v -0.071885 -0.024471 -0.161419
v -0.071885 0.000002 -0.171554
v -0.071885 0.000002 -0.102337
v -0.074880 0.000002 -0.105579
v -0.071885 -0.024471 -0.112472
v -0.074880 -0.022180 -0.114764
v -0.077884 -0.019879 -0.117064
v -0.077884 0.000002 -0.108831
v -0.077884 0.019883 -0.117064
v -0.077884 0.000002 -0.108831
v -0.074880 0.022175 -0.114764
v -0.071885 0.000002 -0.102337
v -0.071885 0.024475 -0.112472
v -0.074880 0.000002 -0.105579
v -0.071885 0.024475 -0.112472
v -0.071885 0.034611 -0.136945
v -0.074880 0.022175 -0.114764
v -0.074880 0.031359 -0.136945
v -0.077884 0.019883 -0.117064
v -0.077884 0.028117 -0.136945
v -0.077884 0.019883 -0.156827
v -0.077884 0.028117 -0.136945
v -0.074880 0.022175 -0.159118
v -0.071885 0.024475 -0.161419
v -0.071885 0.034611 -0.136945
v -0.074880 0.031359 -0.136945
v -0.077884 -0.028113 -0.136946
v -0.077884 -0.019879 -0.156827
v -0.074880 -0.031365 -0.136946
v -0.071885 -0.034607 -0.136946
v -0.071885 -0.024471 -0.161419
v -0.074880 -0.022180 -0.159118
v -0.071885 -0.034607 -0.136946
v -0.071885 -0.024471 -0.112472
v -0.074880 -0.031365 -0.136946
v -0.074880 -0.022180 -0.114764
v -0.077884 -0.028113 -0.136946
v -0.077884 -0.019879 -0.117064
v 0.077884 0.000002 -0.108831
v 0.077884 -0.019879 -0.117064
v 0.077884 0.019883 -0.117064
v 0.077884 -0.028113 -0.136946
v 0.077884 0.028117 -0.136945
v 0.077884 0.019883 -0.156827
v 0.077884 -0.019879 -0.156827
v 0.077884 0.000002 -0.165060
v -0.077884 0.000002 -0.108831
v -0.077884 0.019883 -0.117064
v -0.077884 -0.019879 -0.117064
v -0.077884 -0.028113 -0.136946
v -0.077884 0.028117 -0.136945
v -0.077884 0.019883 -0.156827
v -0.077884 -0.019879 -0.156827
v -0.077884 0.000002 -0.165060
vn -0.0471 0.9989 -0.0000
vn -0.9949 -0.1007 -0.0000
vn -0.9949 -0.1008 -0.0000
vn -0.1438 0.9896 -0.0000
vn 0.9796 0.2010 -0.0000
vn -0.2364 0.9717 -0.0000
vn -0.9551 -0.2962 -0.0000
vn -0.9550 -0.2967 -0.0000
vn -0.9552 -0.2961 -0.0000
vn -0.3289 0.9444 -0.0000
vn -0.3288 0.9444 -0.0000
vn -0.3287 0.9444 -0.0000
vn 0.9208 0.3899 -0.0000
vn -0.4179 0.9085 -0.0000
vn -0.8767 -0.4810 -0.0000
vn -0.8768 -0.4809 -0.0000
vn -0.8768 -0.4808 -0.0000
vn -0.5031 0.8642 -0.0000
vn -0.5030 0.8643 -0.0000
vn 0.8246 0.5657 -0.0000
vn -0.5846 0.8113 -0.0000
vn -0.5847 0.8113 -0.0000
vn -0.7639 -0.6453 -0.0000
vn -0.6631 0.7485 -0.0000
vn 0.6974 0.7167 -0.0000
vn -0.7329 0.6803 -0.0000
vn -0.7329 0.6804 -0.0000
vn -0.6244 -0.7811 -0.0000
vn -0.7954 0.6061 -0.0000
vn 0.5472 0.8370 -0.0000
vn -0.8510 0.5252 -0.0000
vn -0.4620 -0.8869 -0.0000
vn -0.8995 0.4368 -0.0000
vn 0.3747 0.9271 -0.0000
vn -0.9390 0.3440 -0.0000
vn -0.9389 0.3441 -0.0000
vn -0.2847 -0.9586 -0.0000
vn -0.9689 0.2476 -0.0000
vn 0.1908 0.9816 -0.0000
vn -0.9888 0.1495 -0.0000
vn -0.9888 0.1492 -0.0000
vn -0.0961 -0.9954 -0.0000
vn -0.9987 0.0514 -0.0000
vn -0.0000 1.0000 -0.0000
vn -0.9987 -0.0514 -0.0000
vn -0.9987 -0.0513 -0.0000
vn 0.0961 -0.9954 -0.0000
vn -0.9884 -0.1517 -0.0000
vn -0.9888 -0.1492 -0.0000
vn -0.1908 0.9816 -0.0000
vn -0.9689 -0.2476 -0.0000
vn 0.2847 -0.9586 -0.0000
vn -0.9390 -0.3440 -0.0000
vn -0.3743 0.9273 -0.0000
vn -0.3744 0.9273 -0.0000
vn -0.8996 -0.4367 -0.0000
vn 0.4620 -0.8869 -0.0000
vn 0.4619 -0.8869 -0.0000
vn -0.8511 -0.5250 -0.0000
vn -0.8510 -0.5251 -0.0000
vn -0.8511 -0.5251 -0.0000
vn -0.5472 0.8370 -0.0000
vn -0.7954 -0.6061 -0.0000
vn 0.6244 -0.7811 -0.0000
vn -0.7329 -0.6804 -0.0000
vn -0.6974 0.7167 -0.0000
vn -0.6630 -0.7486 -0.0000
vn 0.7639 -0.6453 -0.0000
vn -0.5846 -0.8113 -0.0000
vn -0.8246 0.5657 -0.0000
vn -0.5030 -0.8643 -0.0000
vn 0.8768 -0.4808 -0.0000
vn 0.8768 -0.4809 -0.0000
vn -0.4179 -0.9085 -0.0000
vn -0.9208 0.3899 -0.0000
vn -0.3288 -0.9444 -0.0000
vn -0.3290 -0.9443 -0.0000
vn 0.9551 -0.2962 -0.0000
vn -0.2366 -0.9716 -0.0000
vn -0.9796 0.2010 -0.0000
vn -0.1441 -0.9896 -0.0000
vn 0.9949 -0.1008 -0.0000
vn 0.9949 -0.1007 -0.0000
vn -0.0469 -0.9989 -0.0000
vn -0.0471 -0.9989 -0.0000
vn -0.0470 -0.9989 -0.0000
vn -1.0000 -0.0000 -0.0000
vn 0.0471 -0.9989 -0.0000
vn 0.9949 0.1008 -0.0000
vn 0.9949 0.1007 -0.0000
vn 0.1441 -0.9896 -0.0000
vn -0.9796 -0.2010 -0.0000
vn 0.2365 -0.9716 -0.0000
vn 0.2364 -0.9717 -0.0000
vn 0.9551 0.2963 -0.0000
vn 0.3289 -0.9444 -0.0000
vn -0.9209 -0.3899 -0.0000
vn 0.4180 -0.9085 -0.0000
vn 0.4179 -0.9085 -0.0000
vn 0.8767 0.4810 -0.0000
vn 0.8768 0.4808 -0.0000
vn 0.5031 -0.8642 -0.0000
vn -0.8246 -0.5657 -0.0000
vn 0.5846 -0.8113 -0.0000
vn 0.5847 -0.8113 -0.0000
vn 0.7639 0.6453 -0.0000
vn 0.6631 -0.7485 -0.0000
vn -0.6974 -0.7167 -0.0000
vn 0.7327 -0.6805 -0.0000
vn 0.6243 0.7812 -0.0000
vn 0.7954 -0.6061 -0.0000
vn -0.5472 -0.8370 -0.0000
vn 0.8510 -0.5251 -0.0000
vn 0.8510 -0.5252 -0.0000
vn 0.4620 0.8869 -0.0000
vn 0.4616 0.8871 -0.0000
vn 0.8995 -0.4368 -0.0000
vn -0.3747 -0.9271 -0.0000
vn -0.3744 -0.9273 -0.0000
vn 0.9390 -0.3440 -0.0000
vn 0.9390 -0.3439 -0.0000
vn 0.2847 0.9586 -0.0000
vn 0.9689 -0.2476 -0.0000
vn -0.1905 -0.9817 -0.0000
vn -0.1908 -0.9816 -0.0000
vn 0.9884 -0.1517 -0.0000
vn 0.9888 -0.1495 -0.0000
vn 0.9888 -0.1492 -0.0000
vn 0.0961 0.9954 -0.0000
vn 0.0962 0.9954 -0.0000
vn 0.9987 -0.0514 -0.0000
vn 0.9987 -0.0513 -0.0000
vn -0.0000 -1.0000 -0.0000
vn 0.9987 0.0514 -0.0000
vn -0.0962 0.9954 -0.0000
vn -0.0961 0.9954 -0.0000
vn 0.9888 0.1492 -0.0000
vn 0.1908 -0.9816 -0.0000
vn 0.1905 -0.9817 -0.0000
vn 0.9689 0.2476 -0.0000
vn -0.2847 0.9586 -0.0000
vn 0.9390 0.3439 -0.0000
vn 0.9390 0.3440 -0.0000
vn 0.9390 0.3438 -0.0000
vn 0.3747 -0.9271 -0.0000
vn 0.8996 0.4367 -0.0000
vn -0.4620 0.8869 -0.0000
vn 0.8510 0.5252 -0.0000
vn 0.8510 0.5251 -0.0000
vn 0.5472 -0.8370 -0.0000
vn 0.7953 0.6062 -0.0000
vn 0.7954 0.6061 -0.0000
vn 0.7954 0.6060 -0.0000
vn -0.6243 0.7812 -0.0000
vn -0.6244 0.7811 -0.0000
vn 0.7329 0.6804 -0.0000
vn 0.6974 -0.7167 -0.0000
vn 0.6630 0.7487 -0.0000
vn 0.6630 0.7486 -0.0000
vn -0.7639 0.6453 -0.0000
vn 0.5846 0.8113 -0.0000
vn 0.8246 -0.5657 -0.0000
vn 0.5030 0.8643 -0.0000
vn -0.8768 0.4808 -0.0000
vn -0.8767 0.4810 -0.0000
vn 0.4179 0.9085 -0.0000
vn 0.4178 0.9085 -0.0000
vn 0.9209 -0.3899 -0.0000
vn 0.9208 -0.3899 -0.0000
vn 0.3290 0.9443 -0.0000
vn 0.3288 0.9444 -0.0000
vn -0.9551 0.2963 -0.0000
vn 0.2366 0.9716 -0.0000
vn 0.2365 0.9716 -0.0000
vn 0.9796 -0.2010 -0.0000
vn 0.1441 0.9896 -0.0000
vn 0.1440 0.9896 -0.0000
vn -0.9949 0.1007 -0.0000
vn -0.9949 0.1008 -0.0000
vn 0.0471 0.9989 -0.0000
vn 1.0000 -0.0000 -0.0000
vn -0.0000 -0.0000 -1.0000
vn -0.0000 -0.0000 1.0000
vn 0.0001 -0.0000 1.0000
vn -0.0001 -0.0000 1.0000
vn 0.9169 0.3992 -0.0000
vn 0.9168 0.3993 -0.0000
vn 0.3653 0.9309 -0.0000
vn -0.3654 0.9309 -0.0000
vn -0.9168 0.3993 -0.0000
vn -0.9168 -0.3993 -0.0000
vn -0.3653 -0.9309 -0.0000
vn 0.3653 -0.9309 -0.0000
vn 0.9169 -0.3992 -0.0000
vn 0.9168 -0.3993 -0.0000
vn 0.2573 0.6607 0.7052
vn -0.2573 0.6607 0.7052
vn -0.6473 0.2820 0.7081
vn -0.6473 0.2820 0.7082
vn -0.6473 -0.2820 0.7082
vn -0.6473 -0.2820 0.7081
vn -0.2573 -0.6607 0.7052
vn 0.2573 -0.6607 0.7052
vn 0.6473 -0.2820 0.7082
vn 0.6473 0.2820 0.7082
vn 0.6473 0.2819 0.7082
vn 0.6473 0.2820 0.7081
vn 0.2573 -0.6607 -0.7052
vn -0.2573 -0.6607 -0.7052
vn -0.6473 -0.2820 -0.7081
vn -0.6473 -0.2820 -0.7082
vn -0.6473 0.2820 -0.7082
vn -0.6473 0.2820 -0.7081
vn -0.2573 0.6607 -0.7052
vn 0.2573 0.6607 -0.7052
vn 0.6473 0.2820 -0.7082
vn 0.6473 0.2820 -0.7081
vn 0.6473 -0.2820 -0.7082
vn 0.3654 -0.9309 -0.0000
vn -0.3656 -0.9308 -0.0000
vn -0.3652 -0.9309 -0.0000
vn -0.9169 0.3992 -0.0000
vn -0.3656 0.9308 -0.0000
vn -0.6472 -0.2824 -0.7081
vn -0.6473 0.2821 -0.7081
vn 0.6473 0.2821 -0.7081
vn 0.6473 -0.2819 -0.7082
vn 0.6472 -0.2820 -0.7082
vn -0.7078 0.2679 -0.6536
vn -0.7078 0.2678 -0.6536
vn -0.7078 -0.2679 -0.6536
vn -0.7078 -0.2678 -0.6536
vn -0.0000 -0.9235 0.3836
vn -0.0000 -0.3837 0.9235
vn -0.0000 -0.3836 0.9235
vn -0.0000 -0.3837 0.9234
vn -0.0000 0.3836 0.9235
vn -0.0000 0.3837 0.9235
vn -0.0000 0.9235 0.3836
vn -0.0000 0.9234 -0.3837
vn -0.0000 0.3837 -0.9235
vn -0.0000 0.3837 -0.9234
vn -0.0000 -0.3836 -0.9235
vn -0.0000 -0.3837 -0.9235
vn -0.0000 -0.3837 -0.9234
vn -0.0000 -0.9234 -0.3837
vn 0.7078 -0.2678 -0.6536
vn 0.7078 -0.2679 -0.6536
vn 0.7078 0.2678 -0.6536
vn 0.7078 0.2679 -0.6536
vn 0.7087 0.6513 -0.2713
vn 0.7087 0.6512 -0.2713
vn 0.7087 0.6513 0.2713
vn 0.7087 0.6512 0.2713
vn 0.7087 0.6512 0.2714
vn 0.7078 0.2678 0.6536
vn 0.7078 0.2679 0.6536
vn 0.7078 -0.2679 0.6536
vn 0.7087 -0.6513 0.2713
vn 0.7087 -0.6512 0.2713
vn 0.7087 -0.6512 0.2714
vn 0.7087 -0.6513 -0.2713
vn 0.7087 -0.6512 -0.2713
vn -0.7078 -0.2679 0.6536
vn -0.7078 -0.2678 0.6536
vn -0.7078 0.2678 0.6536
vn -0.7078 0.2679 0.6536
vn -0.7087 0.6513 0.2713
vn -0.7087 0.6512 0.2713
vn -0.7087 0.6512 0.2714
vn -0.7087 0.6512 -0.2713
vn -0.7087 0.6513 -0.2713
vn -0.7087 0.6512 -0.2714
vn -0.7087 -0.6512 -0.2714
vn -0.7087 -0.6512 -0.2713
vn -0.7087 -0.6513 -0.2713
vn -0.7087 -0.6513 0.2713
vn -0.7087 -0.6512 0.2713
vn -0.7087 -0.6512 0.2714
vt 0.221876 0.913002
vt 0.162629 0.913002
vt 0.221876 0.779157
vt 0.162629 0.779157
vt 0.836171 0.760448
vt 0.836171 0.701201
vt 0.702326 0.760448
vt 0.702326 0.701201
vt 0.606620 0.605255
vt 0.547373 0.605255
vt 0.606620 0.471650
vt 0.547373 0.471650
vt 0.989925 0.683451
vt 0.856080 0.683451
vt 0.989925 0.624204
vt 0.856080 0.624204
vt 0.682178 0.760448
vt 0.682178 0.750373
vt 0.548573 0.760448
vt 0.548573 0.750373
vt 0.682178 0.713914
vt 0.548573 0.713914
vt 0.682178 0.701201
vt 0.548573 0.701201
vt 0.682178 0.736461
vt 0.548573 0.736461
vt 0.759174 0.837204
vt 0.759174 0.822573
vt 0.625330 0.837204
vt 0.625330 0.822573
vt 0.759174 0.794269
vt 0.625330 0.794269
vt 0.759174 0.778198
vt 0.625330 0.778198
vt 0.605421 0.837204
vt 0.471576 0.837204
vt 0.605421 0.802424
vt 0.471576 0.802424
vt 0.605421 0.810340
vt 0.471576 0.810340
vt 0.605421 0.778198
vt 0.471576 0.778198
vt 0.298873 0.759248
vt 0.278964 0.759248
vt 0.298873 0.625403
vt 0.278964 0.625403
vt 0.259535 0.759248
vt 0.259535 0.625403
vt 0.239626 0.759248
vt 0.239626 0.625403
vt 0.506356 0.374504
vt 0.529623 0.374504
vt 0.506356 0.240899
vt 0.529623 0.240899
vt 0.512113 0.374504
vt 0.512113 0.240899
vt 0.487167 0.374504
vt 0.487167 0.240899
vt 0.470377 0.374504
vt 0.470377 0.240899
vt 0.422164 0.913002
vt 0.452627 0.913002
vt 0.422164 0.779157
vt 0.452627 0.779157
vt 0.438235 0.913002
vt 0.438235 0.779157
vt 0.406093 0.913002
vt 0.406093 0.779157
vt 0.393380 0.913002
vt 0.393380 0.779157
vt 0.426721 0.913002
vt 0.426721 0.779157
vt 0.144879 0.913002
vt 0.133366 0.913002
vt 0.144879 0.779157
vt 0.133366 0.779157
vt 0.085873 0.913002
vt 0.085873 0.779157
vt 0.912928 0.529697
vt 0.912928 0.470450
vt 0.779323 0.529697
vt 0.779323 0.470450
vt 0.239626 0.605255
vt 0.298873 0.605255
vt 0.239626 0.471650
vt 0.298873 0.471650
vt 0.682178 0.144953
vt 0.682178 0.085706
vt 0.548573 0.144953
vt 0.548573 0.085706
vt 0.452627 0.374504
vt 0.393380 0.374504
vt 0.452627 0.240899
vt 0.393380 0.240899
vt 0.528424 0.144953
vt 0.528424 0.085706
vt 0.394579 0.144953
vt 0.394579 0.085706
vt 0.298873 0.913002
vt 0.298873 0.779157
vt 0.239626 0.913002
vt 0.239626 0.779157
vt 0.836171 0.683451
vt 0.836171 0.624204
vt 0.702326 0.683451
vt 0.702326 0.624204
vt 0.068122 0.759248
vt 0.008876 0.759248
vt 0.068122 0.625403
vt 0.008876 0.625403
vt 0.008876 0.913002
vt 0.018950 0.913002
vt 0.008876 0.779157
vt 0.018950 0.779157
vt 0.055410 0.913002
vt 0.055410 0.779157
vt 0.068122 0.913002
vt 0.068122 0.779157
vt 0.032862 0.913002
vt 0.032862 0.779157
vt 0.162629 0.759248
vt 0.177501 0.759248
vt 0.162629 0.625403
vt 0.177501 0.625403
vt 0.205805 0.759248
vt 0.205805 0.625403
vt 0.221876 0.759248
vt 0.221876 0.625403
vt 0.505157 0.759248
vt 0.470377 0.759248
vt 0.505157 0.625403
vt 0.470377 0.625403
vt 0.497242 0.759248
vt 0.497242 0.625403
vt 0.529623 0.759248
vt 0.529623 0.625403
vt 0.682178 0.683451
vt 0.682178 0.653468
vt 0.548573 0.683451
vt 0.548573 0.653468
vt 0.682178 0.624204
vt 0.548573 0.624204
vt 0.393380 0.759248
vt 0.426481 0.759248
vt 0.393380 0.625403
vt 0.426481 0.625403
vt 0.452627 0.759248
vt 0.452627 0.625403
vt 0.989925 0.760448
vt 0.989925 0.735981
vt 0.856080 0.760448
vt 0.856080 0.735981
vt 0.989925 0.701201
vt 0.856080 0.701201
vt 0.316623 0.913002
vt 0.355721 0.913002
vt 0.316623 0.779157
vt 0.355721 0.779157
vt 0.375630 0.913002
vt 0.375630 0.779157
vt 0.759174 0.529697
vt 0.759174 0.515065
vt 0.625330 0.529697
vt 0.625330 0.515065
vt 0.759174 0.482923
vt 0.625330 0.482923
vt 0.759174 0.470450
vt 0.625330 0.470450
vt 0.759174 0.503552
vt 0.625330 0.503552
vt 0.759174 0.606454
vt 0.759174 0.594940
vt 0.625330 0.606454
vt 0.625330 0.594940
vt 0.759174 0.547447
vt 0.625330 0.547447
vt 0.085873 0.759248
vt 0.144879 0.759248
vt 0.085873 0.625403
vt 0.144879 0.625403
vt 0.912928 0.606454
vt 0.779323 0.606454
vt 0.912928 0.547447
vt 0.779323 0.547447
vt 0.701127 0.374504
vt 0.760374 0.374504
vt 0.701127 0.240899
vt 0.760374 0.240899
vt 0.682178 0.452700
vt 0.682178 0.393454
vt 0.548573 0.452700
vt 0.548573 0.393454
vt 0.529623 0.605255
vt 0.529623 0.471650
vt 0.470377 0.605255
vt 0.470377 0.471650
vt 0.836171 0.452700
vt 0.702326 0.452700
vt 0.836171 0.393454
vt 0.702326 0.393454
vt 0.452627 0.605255
vt 0.452627 0.471650
vt 0.393380 0.605255
vt 0.393380 0.471650
vt 0.989925 0.452700
vt 0.989925 0.393454
vt 0.856080 0.452700
vt 0.856080 0.393454
vt 0.374670 0.403528
vt 0.240826 0.403528
vt 0.374670 0.393454
vt 0.240826 0.393454
vt 0.374670 0.439987
vt 0.240826 0.439987
vt 0.374670 0.452700
vt 0.240826 0.452700
vt 0.374670 0.417440
vt 0.240826 0.417440
vt 0.220677 0.177575
vt 0.087072 0.177575
vt 0.220677 0.162703
vt 0.087072 0.162703
vt 0.220677 0.205639
vt 0.087072 0.205639
vt 0.220677 0.221950
vt 0.087072 0.221950
vt 0.682178 0.197484
vt 0.682178 0.162703
vt 0.548573 0.197484
vt 0.548573 0.162703
vt 0.682178 0.189568
vt 0.548573 0.189568
vt 0.682178 0.221950
vt 0.548573 0.221950
vt 0.336532 0.759248
vt 0.336532 0.625403
vt 0.316623 0.759248
vt 0.316623 0.625403
vt 0.355961 0.759248
vt 0.355961 0.625403
vt 0.375630 0.759248
vt 0.375630 0.625403
vt 0.162629 0.605255
vt 0.162629 0.471650
vt 0.185896 0.605255
vt 0.185896 0.471650
vt 0.180379 0.605255
vt 0.180379 0.471650
vt 0.205325 0.605255
vt 0.205325 0.471650
vt 0.221876 0.605255
vt 0.221876 0.471650
vt 0.085873 0.605255
vt 0.085873 0.471650
vt 0.116335 0.605255
vt 0.116335 0.471650
vt 0.100264 0.605255
vt 0.100264 0.471650
vt 0.132406 0.605255
vt 0.132406 0.471650
vt 0.144879 0.605255
vt 0.144879 0.471650
vt 0.111778 0.605255
vt 0.111778 0.471650
vt 0.943631 0.374504
vt 0.943631 0.240899
vt 0.931877 0.374504
vt 0.931877 0.240899
vt 0.991124 0.374504
vt 0.991124 0.240899
vt 0.989925 0.221950
vt 0.856080 0.221950
vt 0.989925 0.162703
vt 0.856080 0.162703
vt 0.855121 0.374504
vt 0.855121 0.240899
vt 0.914127 0.374504
vt 0.914127 0.240899
vt 0.220677 0.452700
vt 0.087072 0.452700
vt 0.220677 0.393454
vt 0.087072 0.393454
vt 0.068122 0.605255
vt 0.068122 0.471650
vt 0.008876 0.605255
vt 0.008876 0.471650
vt 0.836171 0.221950
vt 0.702326 0.221950
vt 0.836171 0.162703
vt 0.702326 0.162703
vt 0.375630 0.605255
vt 0.316623 0.605255
vt 0.375630 0.471650
vt 0.316623 0.471650
vt 0.374670 0.221950
vt 0.240826 0.221950
vt 0.374670 0.162703
vt 0.240826 0.162703
vt 0.837371 0.374504
vt 0.837371 0.240899
vt 0.778124 0.374504
vt 0.778124 0.240899
vt 0.211802 0.374504
vt 0.211802 0.240899
vt 0.221876 0.374504
vt 0.221876 0.240899
vt 0.175342 0.374504
vt 0.175342 0.240899
vt 0.162629 0.374504
vt 0.162629 0.240899
vt 0.197890 0.374504
vt 0.197890 0.240899
vt 0.668745 0.374504
vt 0.668745 0.240899
vt 0.683377 0.374504
vt 0.683377 0.240899
vt 0.640441 0.374504
vt 0.640441 0.240899
vt 0.624370 0.374504
vt 0.624370 0.240899
vt 0.606620 0.374504
vt 0.606620 0.240899
vt 0.582873 0.374504
vt 0.582873 0.240899
vt 0.588151 0.374504
vt 0.588151 0.240899
vt 0.566083 0.374504
vt 0.566083 0.240899
vt 0.547373 0.374504
vt 0.547373 0.240899
vt 0.567522 0.374504
vt 0.567522 0.240899
vt 0.085873 0.374504
vt 0.085873 0.240899
vt 0.144879 0.374504
vt 0.144879 0.240899
vt 0.528424 0.185970
vt 0.528424 0.162703
vt 0.394579 0.185970
vt 0.394579 0.162703
vt 0.528424 0.180213
vt 0.394579 0.180213
vt 0.528424 0.205159
vt 0.394579 0.205159
vt 0.528424 0.221950
vt 0.394579 0.221950
vt 0.528424 0.424156
vt 0.528424 0.393454
vt 0.394579 0.424156
vt 0.394579 0.393454
vt 0.528424 0.408085
vt 0.394579 0.408085
vt 0.528424 0.439987
vt 0.394579 0.439987
vt 0.528424 0.452700
vt 0.394579 0.452700
vt 0.528424 0.419599
vt 0.394579 0.419599
vt 0.374670 0.097460
vt 0.240826 0.097460
vt 0.374670 0.085706
vt 0.240826 0.085706
vt 0.374670 0.144953
vt 0.240826 0.144953
vt 0.239626 0.374504
vt 0.239626 0.240899
vt 0.298873 0.374504
vt 0.298873 0.240899
vt 0.989925 0.144953
vt 0.989925 0.085706
vt 0.856080 0.144953
vt 0.856080 0.085706
vt 0.316623 0.374504
vt 0.316623 0.240899
vt 0.375630 0.374504
vt 0.375630 0.240899
vt 0.836171 0.144953
vt 0.702326 0.144953
vt 0.836171 0.085706
vt 0.702326 0.085706
vt 0.674742 0.905566
vt 0.672823 0.903647
vt 0.672583 0.907485
vt 0.670904 0.905326
vt 0.670184 0.909164
vt 0.668745 0.907005
vt 0.667786 0.910603
vt 0.666586 0.908444
vt 0.665147 0.912042
vt 0.664188 0.909404
vt 0.662509 0.913002
vt 0.661549 0.910363
vt 0.659630 0.913721
vt 0.659151 0.911083
vt 0.656752 0.913961
vt 0.656512 0.911323
vt 0.650995 0.913961
vt 0.653874 0.914201
vt 0.651235 0.911323
vt 0.653874 0.911563
vt 0.645238 0.913002
vt 0.648117 0.913721
vt 0.645958 0.910363
vt 0.648597 0.911083
vt 0.639961 0.910603
vt 0.642600 0.912042
vt 0.641161 0.908444
vt 0.643559 0.909404
vt 0.635164 0.907485
vt 0.637323 0.909164
vt 0.636843 0.905326
vt 0.639002 0.907005
vt 0.631086 0.903407
vt 0.633005 0.905566
vt 0.633005 0.901728
vt 0.634924 0.903647
vt 0.627728 0.898610
vt 0.629167 0.901009
vt 0.630127 0.897411
vt 0.631566 0.899569
vt 0.625569 0.893093
vt 0.626529 0.895971
vt 0.628208 0.892373
vt 0.628928 0.895012
vt 0.624370 0.887576
vt 0.624850 0.890455
vt 0.627009 0.887336
vt 0.627488 0.889975
vt 0.624370 0.884698
vt 0.627009 0.884698
vt 0.624370 0.881819
vt 0.627009 0.882059
vt 0.627488 0.879421
vt 0.624850 0.878941
vt 0.625569 0.876063
vt 0.628208 0.876782
vt 0.628928 0.874384
vt 0.626529 0.873184
vt 0.627728 0.870786
vt 0.630127 0.871985
vt 0.631566 0.869586
vt 0.629167 0.868147
vt 0.631086 0.865748
vt 0.633005 0.867667
vt 0.634924 0.865509
vt 0.633005 0.863590
vt 0.635164 0.861671
vt 0.636843 0.863829
vt 0.639002 0.862150
vt 0.637323 0.859992
vt 0.639961 0.858552
vt 0.641161 0.860951
vt 0.643559 0.859752
vt 0.642600 0.857353
vt 0.645238 0.856394
vt 0.645958 0.858792
vt 0.648597 0.858313
vt 0.648117 0.855674
vt 0.650995 0.855194
vt 0.651235 0.857833
vt 0.653874 0.857833
vt 0.656752 0.855194
vt 0.653874 0.854954
vt 0.656512 0.857833
vt 0.659151 0.858313
vt 0.662509 0.856394
vt 0.659630 0.855674
vt 0.661549 0.858792
vt 0.664188 0.859752
vt 0.667786 0.858552
vt 0.665147 0.857353
vt 0.666586 0.860951
vt 0.668745 0.862150
vt 0.672583 0.861671
vt 0.670184 0.859992
vt 0.670904 0.863829
vt 0.672823 0.865509
vt 0.676661 0.865748
vt 0.674742 0.863590
vt 0.674742 0.867667
vt 0.674742 0.901728
vt 0.676181 0.869586
vt 0.680019 0.870786
vt 0.678340 0.868147
vt 0.677620 0.871985
vt 0.682178 0.876063
vt 0.681218 0.873184
vt 0.679539 0.876782
vt 0.678580 0.874384
vt 0.683377 0.881819
vt 0.682897 0.878941
vt 0.680499 0.882059
vt 0.680259 0.879421
vt 0.683377 0.884698
vt 0.680739 0.884698
vt 0.683377 0.887576
vt 0.680499 0.887336
vt 0.680259 0.889975
vt 0.682897 0.890455
vt 0.682178 0.893093
vt 0.679539 0.892373
vt 0.678580 0.895012
vt 0.681218 0.895971
vt 0.680019 0.898610
vt 0.677620 0.897411
vt 0.676181 0.899569
vt 0.676661 0.903407
vt 0.678340 0.901009
vt 0.604221 0.895971
vt 0.603022 0.898610
vt 0.601823 0.895012
vt 0.600623 0.897411
vt 0.605901 0.890455
vt 0.605181 0.893093
vt 0.603262 0.889975
vt 0.602542 0.892373
vt 0.606620 0.884698
vt 0.606380 0.887576
vt 0.603742 0.884698
vt 0.603742 0.887336
vt 0.603742 0.882059
vt 0.606380 0.881819
vt 0.605901 0.878941
vt 0.603262 0.879421
vt 0.602542 0.876782
vt 0.605181 0.876063
vt 0.604221 0.873184
vt 0.601823 0.874384
vt 0.600623 0.871985
vt 0.603022 0.870786
vt 0.601583 0.868147
vt 0.599184 0.869586
vt 0.599184 0.899569
vt 0.599904 0.865748
vt 0.597745 0.867667
vt 0.597745 0.863590
vt 0.595826 0.865509
vt 0.595586 0.861671
vt 0.593907 0.863829
vt 0.593428 0.859992
vt 0.591748 0.862150
vt 0.590789 0.858552
vt 0.589590 0.860951
vt 0.588151 0.857353
vt 0.587191 0.859752
vt 0.585512 0.856394
vt 0.584792 0.858792
vt 0.582634 0.855674
vt 0.582154 0.858313
vt 0.579755 0.855194
vt 0.579515 0.857833
vt 0.576877 0.854954
vt 0.576877 0.857833
vt 0.571120 0.855674
vt 0.573998 0.855194
vt 0.571600 0.858313
vt 0.574238 0.857833
vt 0.565603 0.857353
vt 0.568242 0.856394
vt 0.566563 0.859752
vt 0.569201 0.858792
vt 0.560566 0.859992
vt 0.562965 0.858552
vt 0.562005 0.862150
vt 0.564164 0.860951
vt 0.556009 0.863590
vt 0.558167 0.861671
vt 0.557927 0.865509
vt 0.559846 0.863829
vt 0.552411 0.868147
vt 0.554090 0.865748
vt 0.554569 0.869586
vt 0.556248 0.867667
vt 0.549532 0.873184
vt 0.550731 0.870786
vt 0.552171 0.874384
vt 0.553130 0.871985
vt 0.547853 0.878941
vt 0.548573 0.876063
vt 0.550492 0.879421
vt 0.551211 0.876782
vt 0.547373 0.884698
vt 0.547373 0.881819
vt 0.550012 0.884698
vt 0.550252 0.882059
vt 0.550252 0.887336
vt 0.547373 0.887576
vt 0.547853 0.890455
vt 0.550492 0.889975
vt 0.551211 0.892373
vt 0.548573 0.893093
vt 0.549532 0.895971
vt 0.552171 0.895012
vt 0.553130 0.897411
vt 0.550731 0.898610
vt 0.552411 0.901009
vt 0.554569 0.899569
vt 0.556248 0.901728
vt 0.554090 0.903407
vt 0.556009 0.905566
vt 0.557927 0.903647
vt 0.559846 0.905326
vt 0.558167 0.907485
vt 0.560566 0.909164
vt 0.562005 0.907005
vt 0.564164 0.908444
vt 0.562965 0.910603
vt 0.565603 0.912042
vt 0.566563 0.909404
vt 0.569201 0.910363
vt 0.568242 0.913002
vt 0.571120 0.913721
vt 0.571600 0.911083
vt 0.574238 0.911323
vt 0.573998 0.913961
vt 0.576877 0.914201
vt 0.576877 0.911563
vt 0.579515 0.911323
vt 0.582634 0.913721
vt 0.579755 0.913961
vt 0.582154 0.911083
vt 0.584792 0.910363
vt 0.588151 0.912042
vt 0.585512 0.913002
vt 0.587191 0.909404
vt 0.589590 0.908444
vt 0.593428 0.909164
vt 0.590789 0.910603
vt 0.591748 0.907005
vt 0.593907 0.905326
vt 0.597745 0.905566
vt 0.595586 0.907485
vt 0.595826 0.903647
vt 0.597745 0.901728
vt 0.599904 0.903407
vt 0.601583 0.901009
vt 0.087312 0.038453
vt 0.297194 0.038453
vt 0.087312 0.067956
vt 0.297194 0.067956
vt 0.068122 0.241139
vt 0.068122 0.451021
vt 0.038379 0.241139
vt 0.038379 0.451021
vt 0.008876 0.241139
vt 0.008876 0.451021
vt 0.318062 0.067956
vt 0.527944 0.067956
vt 0.318062 0.038453
vt 0.527944 0.038453
vt 0.318062 0.008949
vt 0.527944 0.008949
vt 0.008876 0.010389
vt 0.008876 0.220271
vt 0.038379 0.010389
vt 0.038379 0.220271
vt 0.068122 0.010389
vt 0.068122 0.220271
vt 0.087312 0.008949
vt 0.297194 0.008949
vt 0.730870 0.909164
vt 0.748381 0.901968
vt 0.730870 0.914201
vt 0.751739 0.905566
vt 0.713120 0.901968
vt 0.709762 0.905566
vt 0.705924 0.884698
vt 0.701127 0.884698
vt 0.713120 0.867188
vt 0.709762 0.863590
vt 0.730870 0.859992
vt 0.730870 0.854954
vt 0.748381 0.867188
vt 0.751739 0.863590
vt 0.755576 0.884698
vt 0.760374 0.884698
vt 0.807627 0.859992
vt 0.825377 0.867188
vt 0.807627 0.854954
vt 0.828496 0.863590
vt 0.790117 0.867188
vt 0.786759 0.863590
vt 0.782921 0.884698
vt 0.778124 0.884698
vt 0.790117 0.901968
vt 0.786759 0.905566
vt 0.807627 0.909164
vt 0.807627 0.914201
vt 0.825377 0.901968
vt 0.828496 0.905566
vt 0.832573 0.884698
vt 0.837371 0.884698
vt 0.931877 0.470450
vt 0.991124 0.470450
vt 0.931877 0.499954
vt 0.991124 0.499954
vt 0.807627 0.778198
vt 0.807627 0.837204
vt 0.837371 0.778198
vt 0.837371 0.837204
vt 0.778124 0.778198
vt 0.778124 0.837204
vt 0.855121 0.807701
vt 0.914127 0.807701
vt 0.855121 0.778198
vt 0.914127 0.778198
vt 0.855121 0.837204
vt 0.914127 0.837204
vt 0.961621 0.547447
vt 0.961621 0.606454
vt 0.931877 0.547447
vt 0.931877 0.606454
vt 0.991124 0.547447
vt 0.991124 0.606454
vt 0.931877 0.529697
vt 0.991124 0.529697
vt 0.884624 0.860951
vt 0.901654 0.868147
vt 0.884624 0.854954
vt 0.905732 0.863829
vt 0.867594 0.868147
vt 0.863516 0.863829
vt 0.860638 0.884698
vt 0.855121 0.884698
vt 0.867594 0.901009
vt 0.863516 0.905326
vt 0.884624 0.908205
vt 0.884624 0.914201
vt 0.901654 0.901009
vt 0.905732 0.905326
vt 0.908611 0.884698
vt 0.914127 0.884698
vt 0.516910 0.901728
vt 0.519069 0.903647
vt 0.524106 0.884698
vt 0.526745 0.884698
vt 0.516910 0.867667
vt 0.519069 0.865748
vt 0.856096 0.038501
vt 0.990071 0.038501
vt 0.856096 0.008876
vt 0.990071 0.008876
vt 0.086957 0.085812
vt 0.220710 0.085812
vt 0.086957 0.115437
vt 0.220710 0.115437
vt 0.086957 0.145061
vt 0.220710 0.145061
vt 0.702445 0.008876
vt 0.836199 0.008876
vt 0.702445 0.038501
vt 0.836199 0.038501
vt 0.702445 0.068125
vt 0.836199 0.068125
vt 0.548573 0.068125
vt 0.682327 0.068125
vt 0.548573 0.038501
vt 0.682327 0.038501
vt 0.548573 0.008876
vt 0.682327 0.008876
vt 0.856096 0.068125
vt 0.990071 0.068125
vt 0.991177 0.807640
vt 0.988303 0.807640
vt 0.982554 0.786859
vt 0.980565 0.788627
vt 0.978575 0.790617
vt 0.985650 0.807640
vt 0.978575 0.824664
vt 0.980565 0.826653
vt 0.982554 0.828643
vt 0.961552 0.837265
vt 0.961552 0.834612
vt 0.961552 0.831738
vt 0.944529 0.824664
vt 0.942539 0.826653
vt 0.940549 0.828643
vt 0.931927 0.807640
vt 0.934801 0.807640
vt 0.937454 0.807640
vt 0.944529 0.790617
vt 0.942539 0.788627
vt 0.940549 0.786859
vt 0.961552 0.783764
vt 0.961552 0.780890
vt 0.961552 0.778015
vt 0.518948 0.903589
vt 0.520938 0.905579
vt 0.526907 0.884576
vt 0.529560 0.884576
vt 0.518948 0.865563
vt 0.520938 0.863795
vt 0.470310 0.884576
vt 0.473185 0.884576
vt 0.479154 0.863795
vt 0.481143 0.865563
vt 0.482912 0.867553
vt 0.476059 0.884576
vt 0.482912 0.901600
vt 0.481143 0.903589
vt 0.479154 0.905579
vt 0.499935 0.914201
vt 0.499935 0.911327
vt 0.499935 0.908674
vt 0.516958 0.901600
vt 0.499935 0.860479
vt 0.516958 0.867553
vt 0.499935 0.857826
vt 0.499935 0.854952
vt 0.524033 0.884576
s 1
usemtl grip
f 1/1/1 2/2/1 3/3/1
f 3/3/1 2/2/1 4/4/1
f 5/5/2 6/6/3 7/7/3
f 7/7/3 6/6/3 8/8/2
s 0
f 9/9/4 10/10/4 11/11/4
f 11/11/4 10/10/4 12/12/4
f 13/13/5 14/14/5 15/15/5
f 15/15/5 14/14/5 16/16/5
s 1
f 17/17/6 18/18/6 19/19/6
f 19/19/6 18/18/6 20/20/6
f 21/18/7 22/21/8 23/20/7
f 23/20/7 22/21/8 24/22/9
f 25/21/10 26/23/11 27/22/10
f 27/22/10 26/23/11 28/24/12
f 29/25/13 30/26/13 31/23/13
f 31/23/13 30/26/13 32/24/13
f 33/27/14 34/28/14 35/29/14
f 35/29/14 34/28/14 36/30/14
f 37/28/15 38/31/16 39/30/15
f 39/30/15 38/31/16 40/32/17
f 41/31/18 42/33/19 43/32/19
f 43/32/19 42/33/19 44/34/19
s 0
f 45/35/20 46/36/20 47/37/20
f 47/37/20 46/36/20 48/38/20
s 1
f 49/35/21 50/39/21 51/36/21
f 51/36/21 50/39/21 52/40/22
f 53/39/23 54/41/23 55/40/23
f 55/40/23 54/41/23 56/42/23
s 0
f 57/43/24 58/44/24 59/45/24
f 59/45/24 58/44/24 60/46/24
s 1
f 61/47/25 62/48/25 63/44/25
f 63/44/25 62/48/25 64/46/25
f 65/47/26 66/49/27 67/48/27
f 67/48/27 66/49/27 68/50/27
s 0
f 69/51/28 70/52/28 71/53/28
f 71/53/28 70/52/28 72/54/28
s 1
f 73/52/29 74/55/29 75/54/29
f 75/54/29 74/55/29 76/56/29
f 77/57/30 78/58/30 79/55/30
f 79/55/30 78/58/30 80/56/30
f 81/57/31 82/59/31 83/58/31
f 83/58/31 82/59/31 84/60/31
f 85/61/32 86/62/32 87/63/32
f 87/63/32 86/62/32 88/64/32
s 0
f 89/62/33 90/65/33 91/64/33
f 91/64/33 90/65/33 92/66/33
f 93/67/34 94/68/34 95/65/34
f 95/65/34 94/68/34 96/66/34
s 1
f 97/67/35 98/69/35 99/68/35
f 99/68/35 98/69/35 100/70/36
f 101/69/37 102/71/37 103/70/37
f 103/70/37 102/71/37 104/72/37
f 105/73/38 106/74/38 107/75/38
f 107/75/38 106/74/38 108/76/38
s 0
f 109/77/39 110/78/39 111/74/39
f 111/74/39 110/78/39 112/76/39
f 113/79/40 114/80/40 115/81/40
s 1
f 115/81/41 114/80/41 116/82/41
f 117/83/42 118/84/42 119/85/42
f 119/85/42 118/84/42 120/86/42
f 121/87/43 122/88/43 123/89/43
f 123/89/43 122/88/43 124/90/43
s 0
f 125/91/44 126/92/44 127/93/44
f 126/92/44 128/94/44 127/93/44
s 1
f 129/95/45 130/96/45 131/97/45
f 131/97/45 130/96/45 132/98/46
f 133/99/47 134/100/47 135/101/47
f 135/101/47 134/100/47 136/102/47
f 137/103/48 138/104/48 139/105/49
f 139/105/49 138/104/48 140/106/49
s 0
f 141/107/50 142/108/50 143/109/50
f 143/109/50 142/108/50 144/110/50
s 1
f 145/111/51 146/112/51 147/113/51
f 147/113/51 146/112/51 148/114/51
f 149/115/52 150/116/52 151/112/52
f 151/112/52 150/116/52 152/114/52
f 153/115/53 154/117/53 155/116/53
f 155/116/53 154/117/53 156/118/53
f 157/117/54 158/119/54 159/118/54
s 0
f 159/118/55 158/119/55 160/120/55
f 161/121/56 162/122/56 163/123/56
f 163/123/56 162/122/56 164/124/56
s 1
f 165/125/57 166/126/57 167/122/57
s 0
f 167/122/58 166/126/58 168/124/58
s 1
f 169/125/59 170/127/60 171/126/60
f 171/126/60 170/127/60 172/128/61
f 173/129/62 174/130/62 175/131/62
f 175/131/62 174/130/62 176/132/62
f 177/130/63 178/133/63 179/132/63
f 179/132/63 178/133/63 180/134/63
s 0
f 181/135/64 182/136/64 183/133/64
f 183/133/64 182/136/64 184/134/64
s 1
f 185/137/65 186/138/65 187/139/65
f 187/139/65 186/138/65 188/140/65
f 189/138/66 190/141/66 191/140/66
f 191/140/66 190/141/66 192/142/66
f 193/143/67 194/144/67 195/145/67
f 195/145/67 194/144/67 196/146/67
f 197/147/68 198/148/68 199/144/68
f 199/144/68 198/148/68 200/146/68
f 201/149/69 202/150/69 203/151/69
f 203/151/69 202/150/69 204/152/69
s 0
f 205/150/70 206/153/70 207/152/70
f 207/152/70 206/153/70 208/154/70
s 1
f 209/155/71 210/156/71 211/157/71
f 211/157/71 210/156/71 212/158/71
f 213/159/72 214/160/73 215/156/72
f 215/156/72 214/160/73 216/158/72
f 217/161/74 218/162/74 219/163/74
f 219/163/74 218/162/74 220/164/74
f 221/162/75 222/165/75 223/164/75
f 223/164/75 222/165/75 224/166/75
s 0
f 225/165/76 226/167/76 227/166/76
s 1
f 227/166/77 226/167/77 228/168/77
f 229/169/78 230/170/78 231/167/78
f 231/167/78 230/170/78 232/168/78
s 0
f 233/171/79 234/172/79 235/173/79
f 235/173/79 234/172/79 236/174/79
f 237/172/80 238/175/80 239/174/80
f 239/174/80 238/175/80 240/176/80
s 1
f 241/177/81 242/178/81 243/179/81
f 243/179/81 242/178/81 244/180/81
f 245/181/82 246/182/82 247/183/82
f 247/183/82 246/182/82 248/184/83
f 249/185/84 250/186/85 251/187/85
f 251/187/85 250/186/85 252/188/86
s 0
f 253/189/87 254/190/87 255/191/87
f 255/191/87 254/190/87 256/192/87
s 1
f 257/193/88 258/194/88 259/195/88
f 259/195/88 258/194/88 260/196/88
f 261/197/89 262/198/90 263/199/90
f 263/199/90 262/198/90 264/200/89
f 265/201/91 266/202/91 267/203/91
f 267/203/91 266/202/91 268/204/91
f 269/205/92 270/206/92 271/207/92
f 271/207/92 270/206/92 272/208/92
f 273/209/93 274/210/93 275/211/94
f 275/211/94 274/210/93 276/212/94
s 0
f 277/213/95 278/214/95 279/209/95
f 279/209/95 278/214/95 280/210/95
s 1
f 281/215/96 282/216/96 283/213/96
f 283/213/96 282/216/96 284/214/96
f 285/215/97 286/217/97 287/216/97
f 287/216/97 286/217/97 288/218/97
f 289/219/98 290/220/99 291/221/99
f 291/221/99 290/220/99 292/222/99
f 293/223/100 294/224/100 295/219/100
f 295/219/100 294/224/100 296/220/101
f 297/225/102 298/226/102 299/223/102
f 299/223/102 298/226/102 300/224/102
s 0
f 301/227/103 302/228/103 303/229/103
f 303/229/103 302/228/103 304/230/103
s 1
f 305/231/104 306/232/104 307/228/104
f 307/228/104 306/232/104 308/230/105
f 309/233/106 310/234/106 311/231/106
f 311/231/106 310/234/106 312/232/106
s 0
f 313/235/107 314/236/107 315/237/107
f 315/237/107 314/236/107 316/238/107
s 1
f 317/235/108 318/239/108 319/236/108
f 319/236/108 318/239/108 320/240/108
f 321/241/109 322/242/109 323/239/109
f 323/239/109 322/242/109 324/240/109
f 325/243/110 326/244/110 327/245/110
f 327/245/110 326/244/110 328/246/110
f 329/247/111 330/248/111 331/243/111
f 331/243/111 330/248/111 332/244/111
f 333/247/112 334/249/112 335/248/112
f 335/248/112 334/249/112 336/250/112
f 337/251/113 338/252/114 339/249/114
f 339/249/114 338/252/114 340/250/114
f 341/253/115 342/254/116 343/255/116
f 343/255/116 342/254/116 344/256/115
s 0
f 345/257/117 346/258/117 347/253/117
f 347/253/117 346/258/117 348/254/117
f 349/257/118 350/259/118 351/258/118
f 351/258/119 350/259/119 352/260/119
s 1
f 353/261/120 354/262/120 355/259/121
f 355/259/121 354/262/120 356/260/121
f 357/263/122 358/264/122 359/261/122
f 359/261/122 358/264/122 360/262/122
f 361/265/123 362/266/123 363/267/123
f 363/267/123 362/266/123 364/268/123
s 0
f 365/265/124 366/269/124 367/266/124
f 367/266/125 366/269/125 368/270/125
s 1
f 369/271/126 370/272/127 371/273/126
f 371/273/126 370/272/127 372/274/128
f 373/275/129 374/276/129 375/277/129
f 375/277/129 374/276/129 376/278/130
f 377/279/131 378/280/132 379/281/131
f 379/281/131 378/280/132 380/282/131
s 0
f 381/283/133 382/284/133 383/285/133
f 383/285/133 382/284/133 384/286/133
s 1
f 385/287/134 386/288/134 387/289/134
f 387/289/134 386/288/134 388/290/134
f 389/291/135 390/292/136 391/293/136
f 391/293/136 390/292/136 392/294/136
f 393/295/137 394/296/137 395/297/137
f 395/297/137 394/296/137 396/298/137
s 0
f 397/299/138 398/300/138 399/301/138
f 399/301/139 398/300/139 400/302/139
s 1
f 401/303/140 402/304/140 403/305/140
f 403/305/140 402/304/140 404/306/140
f 405/303/141 406/307/141 407/304/141
f 407/304/141 406/307/141 408/308/141
f 409/309/142 410/310/143 411/307/142
f 411/307/142 410/310/143 412/308/144
s 0
f 413/311/145 414/312/145 415/309/145
f 415/309/145 414/312/145 416/310/145
f 417/313/146 418/314/146 419/315/146
f 419/315/146 418/314/146 420/316/146
s 1
f 421/313/147 422/317/147 423/314/147
f 423/314/147 422/317/147 424/318/147
f 425/319/148 426/320/149 427/317/149
f 427/317/149 426/320/149 428/318/149
f 429/321/150 430/322/150 431/323/150
f 431/323/150 430/322/150 432/324/150
f 433/325/151 434/326/151 435/321/152
f 435/321/152 434/326/151 436/322/153
f 437/325/154 438/327/154 439/326/154
f 439/326/154 438/327/154 440/328/155
f 441/329/156 442/330/156 443/327/156
f 443/327/156 442/330/156 444/328/156
f 445/331/157 446/332/157 447/329/157
f 447/329/157 446/332/157 448/330/157
f 449/333/158 450/334/159 451/335/158
f 451/335/158 450/334/159 452/336/159
f 453/337/160 454/338/160 455/339/160
f 455/339/160 454/338/160 456/340/160
f 457/341/161 458/342/161 459/338/161
f 459/338/161 458/342/161 460/340/161
s 0
f 461/343/162 462/344/162 463/341/162
f 463/341/162 462/344/162 464/342/162
s 1
f 465/345/163 466/346/163 467/343/163
f 467/343/163 466/346/163 468/344/163
f 469/347/164 470/348/165 471/349/164
f 471/349/164 470/348/165 472/350/164
f 473/351/166 474/352/166 475/348/166
f 475/348/166 474/352/166 476/350/167
f 477/353/168 478/354/169 479/351/169
f 479/351/169 478/354/169 480/352/168
f 481/355/170 482/356/170 483/353/170
s 0
f 483/353/171 482/356/171 484/354/171
f 485/355/172 486/357/172 487/356/172
f 487/356/172 486/357/172 488/358/172
s 1
f 489/359/173 490/360/174 491/361/173
f 491/361/173 490/360/174 492/362/174
f 493/363/175 494/364/175 495/359/175
f 495/359/175 494/364/175 496/360/175
f 497/365/176 498/366/176 499/367/176
f 499/367/176 498/366/176 500/368/177
f 501/369/178 502/370/179 503/371/179
f 503/371/179 502/370/179 504/372/178
f 505/373/180 506/374/180 507/375/180
f 507/375/180 506/374/180 508/376/180
s 0
f 509/377/181 510/378/181 511/379/181
f 511/379/181 510/378/181 512/380/181
f 513/381/182 514/382/182 515/383/182
f 515/383/182 514/382/182 516/384/182
f 517/385/182 518/386/182 519/387/182
f 519/387/182 518/386/182 520/388/182
f 521/389/182 522/390/182 523/391/182
f 523/391/182 522/390/182 524/392/182
f 525/393/182 526/394/182 527/395/182
f 527/395/182 526/394/182 528/396/182
f 529/397/182 530/398/182 531/399/182
f 530/398/182 532/400/182 531/399/182
f 533/401/182 534/402/182 535/403/182
f 534/402/182 536/404/182 535/403/182
f 537/405/182 538/406/182 539/407/182
f 538/406/182 540/408/182 539/407/182
f 541/409/182 542/410/182 543/411/182
f 542/410/182 544/412/182 543/411/182
f 545/413/182 546/414/182 547/415/182
f 546/414/182 548/416/182 547/415/182
f 549/417/182 550/418/182 551/419/182
f 550/418/182 552/420/182 551/419/182
f 553/421/182 554/422/182 555/423/182
f 554/422/182 556/424/182 555/423/182
f 557/425/182 558/426/182 559/427/182
f 558/426/182 560/428/182 559/427/182
f 561/429/182 562/430/182 563/431/182
f 563/431/182 562/430/182 564/432/182
f 562/430/182 559/427/182 564/432/182
f 559/427/182 560/428/182 564/432/182
f 564/432/182 560/428/182 565/433/182
f 566/434/182 565/433/182 567/435/182
f 567/435/182 565/433/182 568/436/182
f 565/433/182 560/428/182 568/436/182
f 560/428/182 555/423/182 568/436/182
f 555/423/182 556/424/182 568/436/182
f 568/436/182 556/424/182 569/437/182
f 570/438/182 569/437/182 571/439/182
f 571/439/182 569/437/182 572/440/182
f 569/437/182 556/424/182 572/440/182
f 556/424/182 551/419/182 572/440/182
f 572/440/182 551/419/182 573/441/182
f 551/419/182 552/420/182 573/441/182
f 552/420/182 547/415/182 573/441/182
f 574/442/182 573/441/182 575/443/182
f 575/443/182 573/441/182 576/444/182
f 573/441/182 547/415/182 576/444/182
f 547/415/182 548/416/182 576/444/182
f 576/444/182 548/416/182 577/445/182
f 548/416/182 543/411/182 577/445/182
f 578/446/182 577/445/182 579/447/182
f 579/447/182 577/445/182 580/448/182
f 577/445/182 543/411/182 580/448/182
f 543/411/182 544/412/182 580/448/182
f 580/448/182 544/412/182 581/449/182
f 544/412/182 539/407/182 581/449/182
f 582/450/182 581/449/182 583/451/182
f 583/451/182 581/449/182 584/452/182
f 581/449/182 539/407/182 584/452/182
f 539/407/182 540/408/182 584/452/182
f 584/452/182 540/408/182 585/453/182
f 586/454/182 585/453/182 587/455/182
f 587/455/182 585/453/182 588/456/182
f 585/453/182 540/408/182 588/456/182
f 540/408/182 535/403/182 588/456/182
f 535/403/182 536/404/182 588/456/182
f 588/456/182 536/404/182 589/457/182
f 590/458/182 589/457/182 591/459/182
f 591/459/182 589/457/182 592/460/182
f 589/457/182 536/404/182 592/460/182
f 536/404/182 531/399/182 592/460/182
f 531/399/182 532/400/182 592/460/182
f 592/460/182 532/400/182 593/461/182
f 594/462/182 595/463/182 596/464/182
f 595/463/182 593/461/182 596/464/182
f 593/461/182 532/400/182 596/464/182
f 532/400/182 528/396/182 596/464/182
f 528/396/182 526/394/182 596/464/182
f 596/464/182 526/394/182 597/465/182
f 598/466/182 599/467/182 600/468/182
f 599/467/182 597/465/182 600/468/182
f 597/465/182 526/394/182 600/468/182
f 526/394/182 524/392/182 600/468/182
f 524/392/182 522/390/182 600/468/182
f 600/468/182 522/390/182 601/469/182
f 522/390/182 520/388/182 601/469/182
f 602/470/182 603/471/182 604/472/182
f 603/471/182 601/469/182 604/472/182
f 601/469/182 520/388/182 604/472/182
f 604/472/182 520/388/182 605/473/182
f 520/388/182 518/386/182 605/473/182
f 518/386/182 516/384/182 605/473/182
f 606/474/182 607/475/182 608/476/182
f 607/475/182 605/473/182 608/476/182
f 605/473/182 516/384/182 608/476/182
f 608/476/182 516/384/182 609/477/182
f 516/384/182 514/382/182 609/477/182
f 610/478/182 611/479/182 612/480/182
f 611/479/182 609/477/182 612/480/182
f 609/477/182 514/382/182 612/480/182
f 514/382/182 613/481/182 612/480/182
f 612/480/182 613/481/182 614/482/182
f 615/483/182 616/484/182 617/485/182
f 616/484/182 614/482/182 617/485/182
f 618/486/182 619/487/182 620/488/182
f 619/487/182 621/489/182 620/488/182
f 622/490/182 623/491/182 624/492/182
f 623/491/182 625/493/182 624/492/182
f 626/494/182 627/495/182 628/496/182
f 628/496/182 627/495/182 629/497/182
f 627/495/182 624/492/182 629/497/182
f 629/497/182 624/492/182 630/498/182
f 624/492/182 625/493/182 630/498/182
f 625/493/182 620/488/182 630/498/182
f 631/499/182 630/498/182 632/500/182
f 632/500/182 630/498/182 633/501/182
f 630/498/182 620/488/182 633/501/182
f 633/501/182 620/488/182 634/502/182
f 620/488/182 621/489/182 634/502/182
f 621/489/182 617/485/182 634/502/182
f 635/503/182 634/502/182 636/504/182
f 636/504/182 634/502/182 637/505/182
f 634/502/182 617/485/182 637/505/182
f 617/485/182 614/482/182 637/505/182
f 637/505/182 614/482/182 638/506/182
f 614/482/182 613/481/182 638/506/182
f 613/481/182 639/507/182 638/506/182
f 639/507/182 640/508/182 638/506/182
f 641/509/183 642/510/183 643/511/183
f 642/510/183 644/512/183 643/511/183
f 645/513/183 646/514/183 647/515/183
f 646/514/183 648/516/183 647/515/183
f 649/517/183 650/518/183 651/519/183
f 650/518/183 652/520/183 651/519/183
f 651/519/183 652/520/183 653/521/183
f 652/520/184 647/515/184 653/521/184
f 654/522/183 653/521/183 655/523/183
f 655/523/183 653/521/183 656/524/183
f 653/521/183 647/515/183 656/524/183
f 656/524/185 647/515/185 657/525/185
f 647/515/183 648/516/183 657/525/183
f 648/516/183 643/511/183 657/525/183
f 658/526/183 657/525/183 659/527/183
f 659/527/183 657/525/183 660/528/183
f 657/525/183 643/511/183 660/528/183
f 660/528/183 643/511/183 661/529/183
f 643/511/183 644/512/183 661/529/183
f 662/530/183 661/529/183 663/531/183
f 663/531/183 661/529/183 664/532/183
f 661/529/183 644/512/183 664/532/183
f 644/512/183 665/533/183 664/532/183
f 666/534/183 667/535/183 668/536/183
f 668/536/183 667/535/183 669/537/183
f 670/538/183 671/539/183 672/540/183
f 672/540/183 671/539/183 673/541/183
f 674/542/183 675/543/183 676/544/183
f 676/544/183 675/543/183 677/545/183
f 678/546/183 679/547/183 680/548/183
f 680/548/183 679/547/183 681/549/183
f 682/550/183 683/551/183 684/552/183
f 684/552/183 683/551/183 685/553/183
f 686/554/183 687/555/183 688/556/183
f 687/555/183 689/557/183 688/556/183
f 690/558/183 691/559/183 692/560/183
f 691/559/183 693/561/183 692/560/183
f 694/562/183 695/563/183 696/564/183
f 695/563/183 697/565/183 696/564/183
f 698/566/183 699/567/183 700/568/183
f 699/567/183 701/569/183 700/568/183
f 702/570/183 703/571/183 704/572/183
f 703/571/183 705/573/183 704/572/183
f 706/574/183 707/575/183 708/576/183
f 707/575/183 709/577/183 708/576/183
f 710/578/183 711/579/183 712/580/183
f 711/579/183 713/581/183 712/580/183
f 714/582/183 715/583/183 716/584/183
f 715/583/183 717/585/183 716/584/183
f 716/584/183 717/585/183 718/586/183
f 719/587/183 718/586/183 720/588/183
f 720/588/183 718/586/183 721/589/183
f 718/586/185 717/585/185 721/589/185
f 717/585/183 712/580/183 721/589/183
f 712/580/184 713/581/184 721/589/184
f 721/589/183 713/581/183 722/590/183
f 713/581/183 708/576/183 722/590/183
f 723/591/183 722/590/183 724/592/183
f 724/592/183 722/590/183 725/593/183
f 722/590/183 708/576/183 725/593/183
f 725/593/183 708/576/183 726/594/183
f 708/576/183 709/577/183 726/594/183
f 709/577/183 704/572/183 726/594/183
f 727/595/183 726/594/183 728/596/183
f 728/596/183 726/594/183 729/597/183
f 726/594/183 704/572/183 729/597/183
f 729/597/183 704/572/183 730/598/183
f 704/572/183 705/573/183 730/598/183
f 731/599/183 730/598/183 732/600/183
f 732/600/183 730/598/183 733/601/183
f 730/598/183 705/573/183 733/601/183
f 705/573/183 700/568/183 733/601/183
f 733/601/183 700/568/183 734/602/183
f 700/568/183 701/569/183 734/602/183
f 701/569/183 696/564/183 734/602/183
f 735/603/183 734/602/183 736/604/183
f 736/604/183 734/602/183 737/605/183
f 734/602/183 696/564/183 737/605/183
f 737/605/183 696/564/183 738/606/183
f 696/564/183 697/565/183 738/606/183
f 739/607/183 738/606/183 740/608/183
f 740/608/183 738/606/183 741/609/183
f 738/606/183 697/565/183 741/609/183
f 697/565/183 692/560/183 741/609/183
f 692/560/183 693/561/183 741/609/183
f 741/609/183 693/561/183 742/610/183
f 743/611/183 742/610/183 744/612/183
f 744/612/183 742/610/183 745/613/183
f 742/610/183 693/561/183 745/613/183
f 693/561/183 688/556/183 745/613/183
f 688/556/183 689/557/183 745/613/183
f 745/613/183 689/557/183 746/614/183
f 747/615/183 746/614/183 748/616/183
f 748/616/183 746/614/183 749/617/183
f 746/614/183 689/557/183 749/617/183
f 689/557/183 685/553/183 749/617/183
f 685/553/183 683/551/183 749/617/183
f 749/617/183 683/551/183 750/618/183
f 751/619/183 752/620/183 753/621/183
f 752/620/183 750/618/183 753/621/183
f 750/618/183 683/551/183 753/621/183
f 683/551/183 681/549/183 753/621/183
f 681/549/183 679/547/183 753/621/183
f 753/621/183 679/547/183 754/622/183
f 755/623/183 756/624/183 757/625/183
f 756/624/183 754/622/183 757/625/183
f 754/622/183 679/547/183 757/625/183
f 679/547/183 677/545/183 757/625/183
f 677/545/183 675/543/183 757/625/183
f 757/625/183 675/543/183 758/626/183
f 675/543/183 673/541/183 758/626/183
f 759/627/183 760/628/183 761/629/183
f 760/628/183 758/626/183 761/629/183
f 758/626/183 673/541/183 761/629/183
f 673/541/183 671/539/183 761/629/183
f 761/629/183 671/539/183 762/630/183
f 671/539/183 669/537/183 762/630/183
f 763/631/183 764/632/183 765/633/183
f 764/632/183 762/630/183 765/633/183
f 762/630/183 669/537/183 765/633/183
f 669/537/183 667/535/183 765/633/183
f 765/633/183 667/535/183 766/634/183
f 667/535/183 664/532/183 766/634/183
f 664/532/183 665/533/183 766/634/183
f 766/634/183 665/533/183 767/635/183
f 665/533/183 768/636/183 767/635/183
s 1
usemtl HAMMER
f 769/637/186 770/638/187 771/639/187
f 770/638/187 772/640/186 771/639/187
f 773/641/188 774/642/188 775/643/188
f 774/642/188 776/644/188 775/643/188
f 777/643/189 778/644/189 779/645/189
f 778/644/189 780/646/189 779/645/189
f 781/647/190 782/648/190 783/649/190
f 782/648/190 784/650/190 783/649/190
f 785/649/191 786/650/191 787/651/191
f 786/650/191 788/652/191 787/651/191
f 789/653/192 790/654/192 791/655/192
f 790/654/192 792/656/192 791/655/192
f 793/655/193 794/656/193 795/657/193
f 794/656/193 796/658/193 795/657/193
f 797/659/194 798/660/195 799/637/195
f 798/660/195 800/638/194 799/637/195
f 801/661/196 802/662/196 803/663/196
f 802/662/196 804/664/196 803/663/196
f 805/661/197 806/663/197 807/665/197
f 806/663/197 808/666/197 807/665/197
f 809/665/198 810/666/198 811/667/199
f 810/666/198 812/668/199 811/667/199
f 813/669/200 814/667/201 815/670/200
f 814/667/201 816/668/200 815/670/200
f 817/671/202 818/669/202 819/672/202
f 818/669/202 820/670/202 819/672/202
f 821/671/203 822/672/203 823/673/203
f 822/672/203 824/674/203 823/673/203
f 825/673/204 826/674/204 827/675/204
f 826/674/204 828/676/204 827/675/204
f 829/662/205 830/675/205 831/664/206
f 830/675/205 832/676/207 831/664/206
f 833/677/208 834/678/208 835/679/208
f 834/678/208 836/680/208 835/679/208
f 837/677/209 838/679/209 839/681/209
f 838/679/209 840/682/209 839/681/209
f 841/681/210 842/682/211 843/683/211
f 842/682/211 844/684/211 843/683/211
f 845/685/212 846/683/213 847/686/213
f 847/686/213 846/683/213 848/684/213
f 849/687/214 850/685/214 851/688/214
f 850/685/214 852/686/214 851/688/214
f 853/687/215 854/688/215 855/689/215
f 854/688/215 856/690/215 855/689/215
f 857/689/216 858/690/216 859/691/217
f 859/691/217 858/690/216 860/692/217
f 861/678/218 862/691/218 863/680/218
f 862/691/218 864/692/218 863/680/218
f 865/693/195 866/694/195 867/695/195
f 866/694/195 868/696/195 867/695/195
f 869/697/193 870/698/219 871/699/219
f 870/698/219 872/700/219 871/699/219
s 0
f 873/701/220 874/702/220 875/697/220
s 1
f 874/702/221 876/698/221 875/697/221
f 877/703/191 878/704/191 879/705/191
f 878/704/191 880/706/191 879/705/191
f 881/707/222 882/708/222 883/703/222
f 882/708/222 884/704/222 883/703/222
s 0
f 885/709/223 886/710/223 887/711/223
f 886/710/223 888/712/223 887/711/223
s 1
f 889/713/188 890/714/188 891/709/188
f 890/714/188 892/710/188 891/709/188
f 893/695/186 894/696/186 895/715/186
f 894/696/186 896/716/186 895/715/186
f 897/717/208 898/718/208 899/719/208
f 898/718/208 900/720/208 899/719/208
f 901/717/209 902/719/209 903/721/209
f 902/719/209 904/722/209 903/721/209
f 905/721/210 906/722/210 907/723/210
s 0
f 906/722/224 908/724/224 907/723/224
s 1
f 909/725/213 910/723/212 911/726/225
f 911/726/225 910/723/212 912/724/212
f 913/727/214 914/725/214 915/728/214
f 914/725/214 916/726/214 915/728/214
f 917/727/215 918/728/215 919/729/215
f 918/728/215 920/730/215 919/729/215
f 921/729/216 922/730/226 923/731/216
f 923/731/216 922/730/226 924/732/226
f 925/718/218 926/731/227 927/720/228
f 926/731/227 928/732/227 927/720/228
f 929/733/229 930/734/230 931/735/229
f 930/734/230 932/736/230 931/735/229
f 933/737/231 934/735/232 935/738/232
f 934/735/232 936/736/231 935/738/232
s 0
f 937/731/182 938/718/182 939/729/182
f 939/729/182 938/718/182 940/727/182
f 938/718/182 941/717/182 940/727/182
f 941/717/182 942/721/182 940/727/182
f 940/727/182 942/721/182 943/725/182
f 942/721/182 944/723/182 943/725/182
f 945/675/183 946/662/183 947/673/183
f 947/673/183 946/662/183 948/671/183
f 946/662/183 949/661/183 948/671/183
f 949/661/183 950/665/183 948/671/183
f 948/671/183 950/665/183 951/669/183
f 950/665/183 952/667/183 951/669/183
s 1
usemtl HAMMER-HEAD
f 953/739/233 954/740/233 955/741/233
f 954/740/233 956/742/233 955/741/233
f 957/743/234 958/744/235 959/745/235
f 958/744/235 960/746/236 959/745/235
f 961/745/237 962/746/238 963/747/238
f 962/746/238 964/748/238 963/747/238
f 965/749/239 966/750/239 967/751/239
f 966/750/239 968/752/239 967/751/239
f 969/751/240 970/752/240 971/753/240
f 970/752/240 972/754/240 971/753/240
f 973/755/241 974/756/242 975/757/242
f 974/756/242 976/758/241 975/757/242
f 977/757/243 978/758/244 979/759/245
f 978/758/244 980/760/243 979/759/245
f 981/761/246 982/762/246 983/739/246
f 982/762/246 984/740/246 983/739/246
f 985/763/247 986/764/248 987/765/248
f 987/765/248 986/764/248 988/766/247
f 989/767/247 988/766/247 990/768/247
f 988/766/247 986/764/248 990/768/247
f 991/769/249 992/768/249 993/770/250
f 992/768/249 994/764/250 993/770/250
f 993/770/250 994/764/250 995/771/250
f 995/771/250 994/764/250 996/763/249
f 997/771/251 998/772/251 999/770/251
f 998/772/251 1000/773/251 999/770/251
f 1001/769/252 999/770/251 1002/774/252
f 999/770/251 1000/773/251 1002/774/252
f 1003/775/253 1004/774/254 1005/776/253
f 1006/777/255 1005/776/253 1007/772/253
f 1007/772/253 1005/776/253 1008/773/254
f 1005/776/253 1004/774/254 1008/773/254
f 1009/778/256 1010/779/257 1011/777/256
f 1011/777/256 1010/779/257 1012/776/256
f 1010/779/257 1013/780/256 1012/776/256
f 1012/776/256 1013/780/256 1014/775/256
f 1015/781/258 1016/780/258 1017/782/258
f 1018/778/258 1019/783/258 1020/779/258
f 1019/783/258 1017/782/258 1020/779/258
f 1017/782/258 1016/780/258 1020/779/258
f 1021/784/259 1022/781/259 1023/785/260
f 1024/786/259 1023/785/260 1025/783/259
f 1025/783/259 1023/785/260 1026/782/261
f 1023/785/260 1022/781/259 1026/782/261
f 1027/786/262 1028/765/262 1029/785/263
f 1028/765/262 1030/766/262 1029/785/263
f 1031/784/262 1029/785/263 1032/767/263
f 1029/785/263 1030/766/262 1032/767/263
f 1033/787/230 1034/788/229 1035/789/230
f 1034/788/229 1036/790/230 1035/789/230
f 1037/791/232 1038/789/231 1039/792/231
f 1038/789/231 1040/790/232 1039/792/231
f 1041/793/264 1042/794/264 1043/795/264
f 1043/795/264 1042/794/264 1044/796/264
f 1045/797/264 1044/796/264 1046/798/265
f 1044/796/264 1042/794/264 1046/798/265
f 1047/799/266 1048/798/266 1049/800/266
f 1050/793/267 1051/801/267 1052/794/267
f 1051/801/267 1049/800/266 1052/794/267
f 1049/800/266 1048/798/266 1052/794/267
f 1053/801/268 1054/802/269 1055/800/268
f 1054/802/269 1056/803/269 1055/800/268
f 1057/799/270 1055/800/268 1058/804/269
f 1055/800/268 1056/803/269 1058/804/269
f 1059/805/271 1060/804/271 1061/787/272
f 1062/788/273 1061/787/272 1063/802/272
f 1063/802/272 1061/787/272 1064/803/272
f 1061/787/272 1060/804/271 1064/803/272
f 1065/806/274 1066/807/275 1067/808/275
f 1068/809/276 1067/808/275 1069/792/274
f 1069/792/274 1067/808/275 1070/791/274
f 1067/808/275 1066/807/275 1070/791/274
f 1071/809/277 1072/795/277 1073/808/278
f 1072/795/277 1074/796/277 1073/808/278
f 1075/806/279 1073/808/278 1076/797/278
f 1073/808/278 1074/796/277 1076/797/278
s 0
f 1077/780/181 1078/781/181 1079/775/181
f 1078/781/181 1080/784/181 1079/775/181
f 1079/775/181 1080/784/181 1081/774/181
f 1081/774/181 1080/784/181 1082/769/181
f 1080/784/181 1083/767/181 1082/769/181
f 1083/767/181 1084/768/181 1082/769/181
f 1085/798/87 1086/799/87 1087/797/87
f 1087/797/87 1086/799/87 1088/806/87
f 1086/799/87 1089/804/87 1088/806/87
f 1089/804/87 1090/805/87 1088/806/87
f 1088/806/87 1090/805/87 1091/807/87
f 1090/805/87 1092/810/87 1091/807/87
